<svg width="188" height="120" viewBox="0 0 188 120" fill="none" xmlns="http://www.w3.org/2000/svg">
<g clip-path="url(#clip0_924_1588)">
<path d="M7.9588 72.3585H0V10.386C0.265293 8.70142 -0.344881 8.09125 1.44585 6.53928L6.88436 1.39259C9.28526 -1.06137 11.3015 0.848744 10.9699 1.41912V5.30567C14.8214 1.95984 19.7303 0.080841 24.8314 -0.000194313C27.8086 -0.0251908 30.7603 0.549118 33.5108 1.68854C36.2614 2.82796 38.7546 4.50919 40.8419 6.63213C43.997 9.85316 45.9256 14.0766 46.2937 18.5703H34.6473C34.0445 17.0372 33.1427 15.6394 31.9944 14.4583C30.9757 13.2902 29.7175 12.355 28.3053 11.7164C26.8931 11.0778 25.3599 10.7508 23.8101 10.7574C20.5508 10.9427 17.4855 12.3662 15.2411 14.7368L13.6759 16.2357L11.0229 18.7826V66.7874C11.0229 68.5516 10.8372 72.0269 7.97206 72.3585" fill="#213B74"/>
<path d="M48.5238 72.3591H39.8752C35.5509 72.3591 33.8132 67.5971 32.1817 65.289L16.9273 36.1068C15.6009 32.8039 17.0865 32.3794 20.469 32.5519H23.0158C26.2668 32.712 29.4589 31.6417 31.9562 29.554C33.8022 27.8832 34.9607 25.5852 35.206 23.1074H46.2157C45.9912 26.9331 44.6027 30.5987 42.2363 33.613C39.5954 36.9309 35.9442 39.2968 31.8368 40.3515L48.5238 72.3591Z" fill="#EC614A"/>
<path d="M170.28 18.1591H177.35C180.095 18.1591 181.462 16.8327 181.462 14.0869V9.41771C181.462 6.67635 180.091 5.30567 177.35 5.30567H170.28C169.868 5.30567 169.669 5.49137 169.669 5.86279V17.602C169.669 17.9734 169.868 18.1591 170.28 18.1591ZM168.728 36.345H165.212C165.085 36.3626 164.954 36.3503 164.832 36.3092C164.71 36.2681 164.599 36.1992 164.508 36.108C164.416 36.0168 164.348 35.9057 164.306 35.7834C164.265 35.6611 164.253 35.531 164.271 35.4032V1.51198C164.253 1.38417 164.265 1.25404 164.306 1.13175C164.348 1.00947 164.416 0.89837 164.508 0.807149C164.599 0.715927 164.71 0.647064 164.832 0.605953C164.954 0.564842 165.085 0.552601 165.212 0.570187H178.238C179.401 0.50445 180.564 0.675095 181.658 1.0718C182.753 1.46851 183.755 2.08304 184.605 2.87824C185.406 3.73305 186.023 4.74212 186.42 5.84373C186.817 6.94534 186.985 8.11632 186.913 9.28507V13.9277C186.913 18.1857 185.162 20.8784 181.608 21.9926V22.2181L187.789 35.2307C188.187 35.9736 187.948 36.345 187.059 36.345H183.611C183.26 36.3923 182.904 36.3264 182.594 36.157C182.284 35.9876 182.036 35.7235 181.886 35.4032L175.957 22.5497H170.333C169.895 22.5497 169.669 22.7354 169.669 23.1068V35.3501C169.696 35.4818 169.691 35.6181 169.654 35.7475C169.618 35.8768 169.55 35.9953 169.458 36.0929C169.365 36.1906 169.251 36.2645 169.123 36.3084C168.996 36.3522 168.861 36.3648 168.728 36.345ZM138.365 36.345H134.518C133.366 36.4124 132.212 36.2502 131.124 35.8676C130.035 35.485 129.034 34.8898 128.178 34.1165C127.387 33.2861 126.776 32.3014 126.383 31.2241C125.991 30.1468 125.825 29 125.896 27.8556V23.9956C125.859 22.2536 126.364 20.5433 127.342 19.1009C127.812 18.4045 128.441 17.8298 129.176 17.4239C129.912 17.018 130.733 16.7927 131.573 16.7663C130.094 14.9183 129.289 12.6208 129.292 10.2534V9.0861C129.226 7.9309 129.408 6.77503 129.824 5.69546C130.24 4.61589 130.882 3.63741 131.706 2.82518C133.514 1.2593 135.856 0.451523 138.245 0.570187H139.917C141.069 0.501235 142.223 0.662815 143.312 1.04547C144.4 1.42812 145.402 2.02414 146.257 2.79865C147.054 3.63129 147.67 4.61953 148.068 5.70145C148.465 6.78337 148.634 7.93565 148.565 9.0861V11.2482C148.565 11.9247 148.247 12.2564 147.623 12.2564H144.122C143.485 12.2564 143.167 11.9247 143.167 11.2482V9.19221C143.167 6.53928 141.933 5.21282 139.439 5.21282H138.776C136.123 5.21282 134.876 6.53928 134.876 9.19221V10.3595C135.002 12.3728 135.877 14.2659 137.33 15.6654L140.275 19.0479H153.022C153.646 19.0479 153.964 19.3927 153.964 20.056V22.8946C153.982 23.0224 153.969 23.1525 153.928 23.2748C153.887 23.3971 153.818 23.5082 153.727 23.5994C153.636 23.6907 153.525 23.7595 153.402 23.8006C153.28 23.8417 153.15 23.854 153.022 23.8364H144.281L154.243 35.6287C154.313 35.6898 154.363 35.7705 154.386 35.8603C154.41 35.9502 154.406 36.0451 154.375 36.1327C154.353 36.2217 154.299 36.2994 154.223 36.3509C154.147 36.4023 154.055 36.4238 153.964 36.4113H149.507C149.206 36.4365 148.903 36.3895 148.624 36.2741C148.345 36.1588 148.097 35.9784 147.902 35.7481L145.17 32.5247C144.294 35.045 142.026 36.345 138.365 36.345ZM135.301 31.5564H138.365C138.788 31.6258 139.22 31.6061 139.635 31.4986C140.05 31.3911 140.437 31.1982 140.773 30.9322C141.109 30.6663 141.386 30.3331 141.585 29.9541C141.785 29.575 141.904 29.1585 141.933 28.7311L134.412 19.9896C132.263 20.0958 131.189 21.5416 131.189 24.3272V27.4974C131.144 30.2034 132.515 31.5564 135.301 31.5564ZM99.7513 18.1591H106.821C109.567 18.1591 110.947 16.8327 110.947 14.0869V9.41771C110.947 6.67635 109.572 5.30567 106.821 5.30567H99.7513C99.3534 5.30567 99.1412 5.49137 99.1412 5.86279V17.602C99.1412 17.9734 99.3534 18.1591 99.7513 18.1591ZM98.1596 36.345H94.6975C94.5687 36.3648 94.437 36.3543 94.313 36.3142C94.189 36.2742 94.0761 36.2056 93.9833 36.1141C93.8905 36.0226 93.8204 35.9106 93.7786 35.7872C93.7367 35.6638 93.7244 35.5323 93.7425 35.4032V1.51198C93.7244 1.38291 93.7367 1.2514 93.7786 1.12796C93.8204 1.00451 93.8905 0.892566 93.9833 0.801055C94.0761 0.709544 94.189 0.641007 94.313 0.60092C94.437 0.560833 94.5687 0.550309 94.6975 0.570187H107.71C108.872 0.50599 110.035 0.677354 111.129 1.07398C112.224 1.47061 113.226 2.08432 114.077 2.87824C114.88 3.73196 115.5 4.74054 115.899 5.84219C116.298 6.94385 116.468 8.11539 116.398 9.28507V13.9277C116.398 18.1901 114.63 20.8784 111.093 21.9926V22.2181L117.274 35.2307C117.685 35.9736 117.433 36.345 116.544 36.345H113.096C112.746 36.3902 112.39 36.3234 112.08 36.1542C111.771 35.985 111.522 35.7221 111.371 35.4032L105.429 22.5497H99.8177C99.3667 22.5497 99.1412 22.7354 99.1412 23.1068V35.3501C99.1703 35.4857 99.1652 35.6263 99.1265 35.7594C99.0877 35.8925 99.0164 36.0139 98.919 36.1126C98.8216 36.2113 98.7012 36.2842 98.5687 36.3248C98.4361 36.3653 98.2955 36.3723 98.1596 36.345Z" fill="#213B74"/>
<path d="M176.633 64.8902H183.053C183.524 64.922 183.996 64.852 184.438 64.6849C184.88 64.5178 185.281 64.2576 185.613 63.9218C186.246 63.1878 186.569 62.2367 186.515 61.2689V57.2895C186.564 56.3225 186.241 55.3734 185.613 54.6366C185.278 54.3054 184.876 54.049 184.435 53.8843C183.994 53.7197 183.523 53.6506 183.053 53.6815H176.579C176.381 53.6815 176.274 53.7611 176.274 53.9468V64.6779C176.274 64.8504 176.381 64.9432 176.579 64.9432M176.009 74.1091H175.545C175.372 74.1091 175.28 74.0162 175.28 73.8173V53.0581C175.28 52.8591 175.372 52.7663 175.545 52.7663H183.053C183.647 52.736 184.241 52.8287 184.798 53.0387C185.355 53.2487 185.863 53.5714 186.289 53.9866C186.703 54.4252 187.024 54.9424 187.233 55.5075C187.443 56.0726 187.537 56.6741 187.51 57.2762V61.3618C187.539 61.9641 187.446 62.5663 187.237 63.1317C187.027 63.6972 186.705 64.2142 186.289 64.6514C185.864 65.069 185.357 65.3941 184.8 65.6064C184.243 65.8187 183.648 65.9135 183.053 65.885H176.579C176.381 65.885 176.274 65.9779 176.274 66.1503V73.8305C176.327 73.9632 176.235 74.056 176.062 74.056L176.009 74.1091ZM166.565 52.753H167.135C167.171 52.7487 167.207 52.7527 167.241 52.7645C167.276 52.7763 167.307 52.7957 167.332 52.8213C167.358 52.8468 167.377 52.8778 167.389 52.9119C167.401 52.9461 167.405 52.9824 167.4 53.0183V69.5991C167.43 70.2004 167.339 70.8016 167.131 71.3667C166.924 71.9319 166.605 72.4495 166.193 72.8887C165.763 73.3017 165.252 73.6229 164.694 73.8326C164.135 74.0424 163.54 74.1365 162.943 74.1091H159.176C158.582 74.1362 157.989 74.042 157.432 73.8322C156.876 73.6224 156.368 73.3014 155.94 72.8887C155.526 72.4502 155.205 71.933 154.995 71.3679C154.786 70.8027 154.692 70.2012 154.719 69.5991V53.0581C154.719 52.8591 154.812 52.7663 154.985 52.7663H155.449C155.635 52.7663 155.714 52.8591 155.714 53.0581V69.5063C155.66 70.474 155.983 71.4251 156.616 72.1592C156.948 72.4949 157.349 72.7552 157.791 72.9223C158.232 73.0893 158.705 73.1593 159.176 73.1275H162.89C163.362 73.1593 163.834 73.0893 164.276 72.9223C164.718 72.7552 165.118 72.4949 165.45 72.1592C166.083 71.4251 166.407 70.474 166.352 69.5063V53.0581C166.352 52.7928 166.445 52.6999 166.618 52.6999L166.565 52.753ZM142.569 74.1091H138.417C137.821 74.1365 137.225 74.0424 136.667 73.8326C136.108 73.6229 135.598 73.3017 135.167 72.8887C134.755 72.4495 134.436 71.9319 134.229 71.3667C134.022 70.8016 133.93 70.2004 133.96 69.5991V57.263C133.93 56.6617 134.022 56.0605 134.229 55.4954C134.436 54.9302 134.755 54.4125 135.167 53.9733C135.596 53.5578 136.106 53.235 136.665 53.025C137.224 52.8151 137.821 52.7225 138.417 52.753H142.569C143.163 52.7227 143.758 52.8155 144.315 53.0255C144.871 53.2354 145.379 53.5581 145.805 53.9733C146.217 54.4125 146.536 54.9302 146.744 55.4954C146.951 56.0605 147.043 56.6617 147.013 57.263V69.5991C147.043 70.2004 146.951 70.8016 146.744 71.3667C146.536 71.9319 146.217 72.4495 145.805 72.8887C145.379 73.2853 144.878 73.5927 144.331 73.7932C143.785 73.9936 143.204 74.083 142.622 74.056L142.569 74.1091ZM138.417 73.1806H142.569C143.04 73.2107 143.512 73.1398 143.954 72.9729C144.395 72.8059 144.796 72.5466 145.129 72.2122C145.758 71.4769 146.077 70.5255 146.018 69.5593V57.2497C146.07 56.2845 145.752 55.3356 145.129 54.5968C144.793 54.2669 144.392 54.0114 143.951 53.8469C143.509 53.6824 143.039 53.6125 142.569 53.6417H138.417C137.947 53.6108 137.476 53.6799 137.035 53.8445C136.593 54.0092 136.192 54.2656 135.857 54.5968C135.229 55.3336 134.906 56.2827 134.955 57.2497V69.5063C134.901 70.474 135.224 71.4251 135.857 72.1592C136.195 72.502 136.604 72.7664 137.056 72.9337C137.507 73.101 137.99 73.1672 138.47 73.1275L138.417 73.1806ZM115.867 64.1739H122.314C122.782 64.2038 123.251 64.1341 123.69 63.9695C124.129 63.8048 124.528 63.549 124.861 63.2188C125.495 62.4855 125.818 61.5338 125.763 60.5659V57.2497C125.818 56.2817 125.495 55.3301 124.861 54.5968C124.528 54.2666 124.129 54.0107 123.69 53.8461C123.251 53.6815 122.782 53.6118 122.314 53.6417H115.867C115.668 53.6417 115.562 53.7213 115.562 53.907V63.8688C115.562 64.0412 115.668 64.1208 115.867 64.1208V64.1739ZM115.297 74.1091H114.832C114.66 74.1091 114.567 74.0162 114.567 73.8173V53.0581C114.567 52.8591 114.66 52.7663 114.832 52.7663H122.314C122.908 52.7368 123.502 52.8299 124.059 53.0399C124.616 53.2498 125.123 53.5721 125.55 53.9866C125.962 54.4258 126.281 54.9434 126.489 55.5086C126.696 56.0738 126.787 56.675 126.757 57.2762V60.6057C126.804 61.7052 126.451 62.7844 125.763 63.6433C125.089 64.4317 124.14 64.9344 123.11 65.0493V65.182L127.195 73.8305C127.315 74.0295 127.195 74.1224 127.063 74.1224H126.466C126.374 74.1194 126.286 74.0903 126.211 74.0386C126.135 73.9869 126.077 73.9147 126.041 73.8305L121.942 64.9963H115.867C115.668 64.9963 115.562 65.0891 115.562 65.2616V73.7112C115.562 73.9632 115.469 74.056 115.297 74.056V74.1091ZM102.297 74.1091H98.6363C98.0423 74.1354 97.4492 74.0409 96.8928 73.8311C96.3365 73.6213 95.8285 73.3007 95.3998 72.8887C94.979 72.4444 94.6536 71.9185 94.4438 71.3437C94.2339 70.7688 94.1439 70.157 94.1794 69.5461V57.2099C94.1495 56.6086 94.2409 56.0075 94.4483 55.4423C94.6557 54.8771 94.9748 54.3595 95.3865 53.9203C95.8134 53.5057 96.3211 53.1835 96.8779 52.9735C97.4347 52.7636 98.0287 52.6705 98.6231 52.6999H102.284C102.879 52.6697 103.473 52.7624 104.03 52.9724C104.587 53.1824 105.094 53.5051 105.521 53.9203C105.934 54.3588 106.255 54.876 106.465 55.4412C106.675 56.0063 106.769 56.6078 106.741 57.2099V58.8813C106.741 59.0802 106.648 59.1731 106.476 59.1731H106.011C105.826 59.1731 105.746 59.0802 105.746 58.8813V57.2497C105.795 56.2827 105.472 55.3336 104.844 54.5968C104.509 54.2656 104.108 54.0092 103.667 53.8445C103.225 53.6799 102.754 53.6108 102.284 53.6417H98.6363C98.1684 53.6118 97.6995 53.6815 97.2605 53.8461C96.8215 54.0107 96.4224 54.2666 96.0895 54.5968C95.4613 55.3336 95.1386 56.2827 95.1875 57.2497V69.5063C95.1331 70.474 95.4565 71.4251 96.0895 72.1592C96.4197 72.4939 96.8181 72.7536 97.2575 72.9207C97.697 73.0877 98.1672 73.1583 98.6363 73.1275H102.297C102.769 73.1593 103.241 73.0893 103.683 72.9223C104.125 72.7552 104.525 72.4949 104.857 72.1592C105.491 71.4251 105.814 70.474 105.759 69.5063V64.4922C105.759 64.3065 105.653 64.2269 105.454 64.2269H101.17C100.971 64.2269 100.865 64.1341 100.865 63.9616V63.5637C100.865 63.378 100.971 63.2984 101.17 63.2984H106.118C106.516 63.2984 106.715 63.5106 106.715 63.9218V69.5461C106.742 70.1482 106.648 70.7497 106.438 71.3148C106.229 71.8799 105.908 72.3971 105.494 72.8357C105.071 73.2433 104.569 73.5615 104.02 73.7712C103.471 73.9808 102.885 74.0777 102.297 74.056V74.1091Z" fill="#213B74"/>
<path d="M183.371 119.766H180.24C179.622 119.819 178.999 119.736 178.417 119.523C177.834 119.309 177.305 118.97 176.868 118.53C176.43 118.09 176.094 117.559 175.884 116.975C175.674 116.391 175.594 115.768 175.651 115.15V104.313C175.596 103.696 175.678 103.074 175.889 102.491C176.1 101.908 176.436 101.378 176.873 100.939C177.31 100.499 177.838 100.16 178.419 99.9456C179.001 99.7312 179.622 99.6463 180.24 99.697H183.371C183.988 99.6463 184.61 99.7312 185.192 99.9456C185.773 100.16 186.301 100.499 186.738 100.939C187.175 101.378 187.511 101.908 187.722 102.491C187.933 103.074 188.014 103.696 187.96 104.313V115.15C188.017 115.768 187.937 116.391 187.727 116.975C187.517 117.559 187.181 118.09 186.743 118.53C186.306 118.97 185.777 119.309 185.194 119.523C184.611 119.736 183.989 119.819 183.371 119.766ZM180.519 117.777H183.052C184.79 117.777 185.705 116.861 185.705 115.057V104.446C185.705 102.642 184.83 101.793 183.052 101.793H180.479C178.755 101.793 177.826 102.708 177.826 104.446V115.057C177.932 116.861 178.794 117.777 180.519 117.777ZM122.764 119.766H116.623C116.305 119.766 116.145 119.621 116.145 119.329V118.175C116.145 117.909 116.305 117.777 116.623 117.777H122.486C122.852 117.827 123.225 117.791 123.574 117.671C123.924 117.551 124.24 117.351 124.499 117.087C124.757 116.822 124.949 116.501 125.06 116.148C125.171 115.796 125.198 115.422 125.139 115.057V111.967H119.833C119.22 111.999 118.608 111.907 118.031 111.697C117.454 111.488 116.926 111.164 116.477 110.746C116.056 110.309 115.727 109.791 115.511 109.223C115.294 108.656 115.194 108.05 115.217 107.444V104.313C115.163 103.696 115.244 103.074 115.455 102.491C115.666 101.908 116.002 101.378 116.439 100.939C116.876 100.499 117.404 100.16 117.985 99.9456C118.567 99.7312 119.189 99.6463 119.806 99.697H122.764C123.382 99.6617 124.001 99.7529 124.583 99.965C125.164 100.177 125.697 100.506 126.147 100.931C126.562 101.386 126.881 101.92 127.086 102.501C127.291 103.082 127.378 103.698 127.341 104.313V115.15C127.402 115.769 127.326 116.394 127.117 116.981C126.909 117.567 126.573 118.099 126.134 118.541C125.696 118.982 125.165 119.32 124.58 119.532C123.995 119.744 123.371 119.824 122.751 119.766H122.764ZM120.111 109.964H125.139V104.406C125.187 104.046 125.151 103.68 125.035 103.337C124.919 102.993 124.725 102.68 124.468 102.424C124.211 102.167 123.899 101.973 123.555 101.857C123.212 101.74 122.846 101.705 122.486 101.753H120.085C118.361 101.753 117.432 102.668 117.432 104.406V107.284C117.498 109.075 118.361 109.964 120.085 109.964H120.111ZM62.6357 119.766H56.4942C56.1758 119.766 56.0167 119.621 56.0167 119.329V118.175C56.0167 117.909 56.1758 117.777 56.4942 117.777H62.3439C62.71 117.827 63.0828 117.791 63.4324 117.671C63.782 117.551 64.0985 117.351 64.3566 117.087C64.6147 116.822 64.807 116.501 64.9182 116.148C65.0294 115.796 65.0564 115.422 64.9968 115.057V111.967H59.691C59.0783 111.999 58.4656 111.907 57.889 111.697C57.3125 111.488 56.784 111.164 56.335 110.746C55.9164 110.308 55.5902 109.789 55.376 109.222C55.1618 108.654 55.0639 108.05 55.0881 107.444V104.313C55.0336 103.694 55.1152 103.071 55.327 102.487C55.5389 101.903 55.8759 101.373 56.3145 100.933C56.7531 100.493 57.2826 100.155 57.8659 99.9412C58.4491 99.7276 59.0721 99.6443 59.691 99.697H62.649C63.2671 99.6617 63.8858 99.7529 64.4674 99.965C65.049 100.177 65.5813 100.506 66.0315 100.931C66.4485 101.385 66.7701 101.919 66.9775 102.5C67.1848 103.081 67.2736 103.697 67.2385 104.313V115.15C67.2999 115.769 67.2236 116.394 67.0151 116.981C66.8065 117.567 66.4709 118.099 66.0322 118.541C65.5936 118.982 65.0628 119.32 64.4779 119.532C63.893 119.744 63.2684 119.824 62.649 119.766H62.6357ZM59.9828 109.964H64.9968V104.406C65.0449 104.046 65.0094 103.68 64.893 103.337C64.7767 102.993 64.5827 102.68 64.3261 102.424C64.0694 102.167 63.7571 101.973 63.4133 101.857C63.0696 101.74 62.7036 101.705 62.3439 101.753H59.9563C58.2319 101.753 57.3033 102.668 57.3033 104.406V107.284C57.2449 107.647 57.273 108.019 57.3852 108.368C57.4975 108.718 57.6907 109.037 57.9493 109.298C58.2078 109.559 58.5243 109.755 58.873 109.871C59.2218 109.987 59.5929 110.019 59.9563 109.964H59.9828ZM0 104.008V102.682C0.0192477 102.562 0.068244 102.45 0.142446 102.355C0.216648 102.26 0.313654 102.185 0.424469 102.138L4.04572 100.042C4.28873 99.8845 4.56649 99.7889 4.85487 99.7633H6.18133C6.24088 99.7543 6.30171 99.7595 6.35892 99.7783C6.41612 99.7971 6.46811 99.8291 6.5107 99.8717C6.55328 99.9143 6.58527 99.9663 6.60409 100.023C6.62292 100.081 6.62804 100.141 6.61906 100.201V119.382C6.62804 119.441 6.62292 119.502 6.60409 119.559C6.58527 119.617 6.55328 119.669 6.5107 119.711C6.46811 119.754 6.41612 119.786 6.35892 119.805C6.30171 119.823 6.24088 119.828 6.18133 119.819H4.76201C4.70246 119.828 4.64163 119.823 4.58443 119.805C4.52722 119.786 4.47523 119.754 4.43265 119.711C4.39006 119.669 4.35807 119.617 4.33925 119.559C4.32043 119.502 4.3153 119.441 4.32428 119.382V102.138L0.610174 104.26C0.238764 104.459 0 104.379 0 104.008Z" fill="#213B74"/>
<path d="M188 85.3975H0V88.3422H188V85.3975Z" fill="#213B74"/>
<path d="M71.4057 0.119141H68.4609V74.0564H71.4057V0.119141Z" fill="#213B74"/>
</g>
<defs>
<clipPath id="clip0_924_1588">
<rect width="188" height="119.767" fill="white"/>
</clipPath>
</defs>
</svg>
