<svg width="48" height="48" viewBox="0 0 48 48" fill="none" xmlns="http://www.w3.org/2000/svg">
<path d="M24.2268 4C28.4553 4.11428 32.2267 5.65712 35.3124 8.74279C38.6266 12.057 40.1694 16.1141 39.998 20.7426C39.8837 23.8283 39.0266 26.6854 37.7123 29.4853C36.1123 32.971 33.9981 36.1138 31.541 39.0852C30.7981 39.9995 30.0553 40.8566 29.2553 41.7137C26.4553 44.628 21.8268 44.7994 19.0269 41.9423C15.2555 38.1138 12.1698 33.8281 10.0556 28.9139C8.74132 25.9425 7.88419 22.7997 7.99847 19.5426C8.22704 13.3713 11.1413 8.74279 16.6841 5.82854C18.9697 4.57142 21.4268 4.05714 24.2268 4Z" stroke="white" stroke-width="1.59184" stroke-miterlimit="10"/>
<path d="M23.9963 12.3998C28.0534 12.3998 31.3676 15.714 31.3105 19.714C31.3105 23.771 27.9963 27.0281 23.9392 27.0281C19.8821 27.0281 16.625 23.7139 16.625 19.714C16.6821 15.6569 19.9392 12.3426 23.9963 12.3998Z" stroke="white" stroke-width="1.59184" stroke-miterlimit="10"/>
</svg>
