<svg width="48" height="48" viewBox="0 0 48 48" fill="none" xmlns="http://www.w3.org/2000/svg">
<path d="M41.6601 39.8132L43.3438 41.4969H8.17212V42.5664H43.3438L41.6601 44.2459L42.4142 45L45.3868 42.0316L42.4142 39.0591L41.6601 39.8132Z" fill="white"/>
<path d="M5.04717 5.04303V40.2083H6.11253V5.04303L7.79619 6.72252L8.55032 5.96839L5.58193 3L2.60938 5.96839L3.3635 6.72252L5.04717 5.04303Z" fill="white"/>
<path d="M11.7221 23.2668C11.7702 23.4172 11.8872 23.5404 12.0376 23.5989C12.188 23.6574 12.353 23.6407 12.493 23.5613L14.0053 22.6944V35.508C14.0053 35.8025 14.2456 36.0427 14.5401 36.0427H34.1383C34.4328 36.0427 34.673 35.8025 34.673 35.508L34.6751 22.6944L36.1875 23.5613C36.2669 23.6094 36.3588 23.6302 36.4486 23.6302C36.5134 23.6302 36.576 23.6198 36.6408 23.5926C36.7912 23.5342 36.9082 23.4172 36.9562 23.2605L37.8754 20.501C37.9548 20.2608 37.8545 19.9976 37.6352 19.8701L34.673 18.1697V14.6081C34.673 14.3135 34.4328 14.0733 34.1383 14.0733H30.9025C30.6079 14.0733 30.3677 14.3135 30.3677 14.6081V15.7048L24.5981 12.4001C24.4331 12.304 24.2284 12.304 24.0696 12.4001L11.0491 19.8761C10.8297 20.0035 10.7274 20.2668 10.8089 20.507L11.7221 23.2668ZM27.1614 34.9734H21.5298V29.5776H27.1657L27.1678 34.9734H27.1614ZM33.6161 34.9734H28.231V29.0428C28.231 28.7483 27.9907 28.508 27.6962 28.508H20.995C20.7005 28.508 20.4602 28.7483 20.4602 29.0428V34.9734H15.0751V22.0844L24.3416 16.7785L33.608 22.0844L33.6101 34.9734H33.6161ZM24.3475 13.4864L30.6518 17.0961C30.6623 17.1024 30.6686 17.1024 30.679 17.1065C30.7166 17.1232 30.7542 17.1337 30.7918 17.1441C30.8231 17.1504 30.8566 17.1608 30.8879 17.165C30.8983 17.165 30.9088 17.1713 30.9192 17.1713C30.9464 17.1713 30.9673 17.1608 30.9882 17.1546C31.0195 17.1483 31.0529 17.1441 31.0905 17.1337C31.1219 17.1232 31.1553 17.1065 31.1866 17.0856C31.2138 17.0689 31.2409 17.0543 31.266 17.0313C31.2932 17.0042 31.314 16.977 31.3412 16.9457C31.3579 16.929 31.3725 16.9143 31.383 16.8976C31.3892 16.8872 31.3892 16.8767 31.3934 16.8663C31.4101 16.835 31.4143 16.8016 31.4248 16.7702C31.4352 16.7326 31.4456 16.7013 31.4456 16.6637C31.4456 16.6532 31.4519 16.647 31.4519 16.6365V15.1492H33.6182V18.4853C33.6182 18.5124 33.6286 18.5333 33.6349 18.5542C33.6411 18.5918 33.6453 18.6231 33.6558 18.6566C33.6662 18.6879 33.6829 18.7213 33.7038 18.7527C33.7205 18.7798 33.7351 18.807 33.7581 18.832C33.7853 18.8592 33.8124 18.8801 33.8375 18.9072C33.8542 18.9239 33.8688 18.9386 33.8855 18.949L36.7348 20.5847L36.1625 22.3122L24.6104 15.6966C24.4454 15.6005 24.2407 15.6005 24.0819 15.6966L12.5299 22.3122L11.9575 20.5847L24.3475 13.4864Z" fill="white"/>
<path d="M21.4453 23.1016C21.4453 24.6996 22.7446 26.0011 24.3448 26.0011C25.9428 26.0011 27.2442 24.7017 27.2442 23.1016C27.2442 21.5036 25.9449 20.2021 24.3448 20.2021C22.7446 20.2021 21.4453 21.5015 21.4453 23.1016ZM26.1726 23.1016C26.1726 24.1126 25.3537 24.9315 24.3426 24.9315C23.3316 24.9315 22.5127 24.1127 22.5127 23.1016C22.5127 22.0906 23.3315 21.2717 24.3426 21.2717C25.3537 21.2717 26.1726 22.0905 26.1726 23.1016Z" fill="white"/>
</svg>
