<svg width="164" height="59" viewBox="0 0 164 59" fill="none" xmlns="http://www.w3.org/2000/svg">
<path d="M124.895 18.1542C124.895 21.0529 124.964 23.9608 124.85 26.855C124.79 28.4031 125.442 28.6926 126.761 28.4675C129.058 28.0678 130.822 26.8734 132.535 24.6361V32.9786C131.001 31.9312 129.884 30.475 128.102 29.9237C125.369 29.083 124.886 29.3311 124.886 32.1518C124.886 34.8208 124.914 37.4944 124.886 40.1681C124.886 42.1618 125.851 43.122 127.822 43.1266C128.509 43.0782 129.199 43.0874 129.884 43.1541C133.1 43.6962 135.333 42.658 136.247 39.3458C136.328 39.0088 136.484 38.6945 136.703 38.4264C136.923 38.1583 137.2 37.9433 137.515 37.7976C137.756 37.6785 138.022 37.6166 138.291 37.6166C138.561 37.6166 138.826 37.6785 139.068 37.7976C139.83 38.1697 139.27 38.7164 139.132 39.1758C138.673 40.6734 138.475 42.1526 139.476 43.7697H117.504C119.801 43.269 119.934 41.6289 119.907 39.7225C119.81 32.3217 119.801 24.9164 119.76 17.511C119.217 16.4177 119.654 16.0042 120.779 15.9629C122.13 15.9124 123.494 16.1604 124.831 15.8021L125.291 15.7745C125.86 16.6749 124.854 17.3227 124.895 18.1542Z" fill="white"/>
<path d="M144.087 15.7471H151.543C149.053 16.5234 148.948 18.3564 148.966 20.4834C149.026 26.754 148.925 33.0247 148.897 39.2953C148.897 42.4146 149.554 43.0853 152.613 43.1175C153.072 43.083 153.533 43.083 153.992 43.1175C157.092 43.6274 159.371 42.828 160.203 39.4423C160.372 38.7632 160.803 38.1786 161.402 37.8161C161.633 37.6786 161.896 37.6008 162.165 37.5896C162.435 37.5784 162.703 37.6341 162.945 37.7518C163.666 38.0688 163.359 38.5971 163.184 39.1024C162.681 40.6005 162.727 42.2287 163.313 43.6963H141.887C144.468 42.9199 144.014 40.8113 144.014 38.9003C144.014 32.7031 144.014 26.4968 144.014 20.3134C144.032 19.251 143.891 18.1918 143.596 17.1712C143.196 16.5326 143.495 16.0916 144.087 15.7471Z" fill="white"/>
<path d="M74.2344 15.7792H84.8554C82.1726 16.4177 82.1451 18.3747 82.1726 20.5568C82.2553 26.9883 82.2369 33.3738 82.1726 39.7822C82.1726 41.5785 82.2323 43.2047 84.4696 43.7422H74.781C77.1745 42.9934 77.225 41.1466 77.202 39.0886C77.1239 32.9098 77.1699 26.7264 77.1699 20.5476C77.1837 17.4238 77.1882 17.4238 74.2344 15.7792Z" fill="white"/>
<path d="M5.90911 17.1068C3.43301 20.3225 3.74999 23.0789 7.11271 25.1186C9.64395 26.6483 12.4003 27.8152 15.051 29.1474C16.6987 29.9565 18.1756 31.0747 19.4014 32.4412C22.0796 35.4548 21.8683 39.185 18.8501 41.9046C17.9313 42.2308 17.1595 42.8831 16.3143 43.3701C16.2227 43.44 16.1175 43.4899 16.0055 43.5168C15.8934 43.5436 15.777 43.5468 15.6637 43.526C15.5504 43.5053 15.4427 43.461 15.3474 43.3962C15.2522 43.3314 15.1715 43.2474 15.1107 43.1496C14.9131 42.7729 15.3725 42.4972 15.4828 42.1527C18.3631 38.5603 17.9635 35.8361 13.9852 33.5116C11.1553 31.8624 8.13715 30.5347 5.25678 28.9774C3.48445 28.0456 2.015 26.6272 1.02122 24.8889C-0.843902 21.5859 0.538859 18.4988 4.88008 16.1283C5.37163 15.9354 5.92289 15.7516 6.295 16.2294C6.57063 16.5785 6.21691 16.8909 5.90911 17.1068Z" fill="white"/>
<path d="M52.7305 15.7516H54.1546C54.4747 15.9522 54.8427 16.0632 55.2204 16.0732C58.0272 16.0732 58.064 16.0732 58.0134 18.9306C57.9675 21.5721 58.2294 24.2136 57.8572 26.8459C57.8572 27.2364 57.8572 27.6269 57.8572 28.0173C58.3166 30.7369 57.8572 33.4795 58.0364 36.2036C58.0915 37.003 57.6735 37.8804 58.3672 38.5971H58.3993C58.7393 39.6169 57.9951 40.8067 58.9047 41.7255C59.1573 41.9093 58.9047 41.6566 59.0608 41.8955C59.58 42.6121 61.1557 42.6489 60.8754 43.609C60.5676 44.684 59.1895 44.3302 58.2477 44.344C56.0473 44.3762 53.8422 44.4221 51.6417 44.3073C51.0445 44.2751 50.2635 44.2659 50.0982 43.5906C49.9328 42.9153 50.6632 42.7913 51.0813 42.5248C52.363 41.7209 52.7029 40.77 51.6279 39.5434C51.4793 39.2076 51.4548 38.8298 51.559 38.4776C53.2588 36.098 52.34 33.3738 52.5421 30.8012C52.5789 30.2086 52.4135 29.5884 52.7488 29.0326C53.2571 25.1195 53.2324 21.1556 52.6753 17.2493C52.4732 16.7256 52.3354 16.2294 52.7305 15.7516Z" fill="white"/>
<path d="M31.9363 43.8019C27.7605 42.5111 25.3165 39.4377 24.2094 35.4732C22.4453 29.1382 23.75 20.4834 30.6408 16.5969C31.4402 16.3489 32.019 16.3489 31.5596 17.4468C30.0666 19.3808 29.3959 21.5721 29.1524 23.9747C28.6631 28.7598 29.1843 33.5944 30.6822 38.1652C31.3742 40.1918 32.6734 41.9561 34.4032 43.2185C34.6697 43.7836 34.6788 44.321 33.8749 44.1373C33.2272 43.9949 32.5611 44.0041 31.9363 43.8019Z" fill="white"/>
<path d="M104.644 42.3503C105.302 42.938 106.089 43.3629 106.941 43.5906C104.198 43.9296 101.428 43.9958 98.6719 43.7882C100.179 41.8449 99.8433 39.571 99.8433 37.3567C99.8433 32.4688 99.8433 27.5809 99.8433 22.693C99.8433 21.6732 99.4804 20.5431 100.486 19.6978C101.153 19.1373 100.252 19.0455 100.114 18.7285C99.4069 17.1252 100.036 16.064 101.787 16.2294C102.659 16.3121 103.725 15.2831 104.428 16.5923C104.373 24.673 104.428 32.7444 104.428 40.8205C104.405 41.312 104.272 41.8633 104.644 42.3503Z" fill="white"/>
<path d="M58.1614 41.8909C57.385 40.724 57.702 39.6307 58.4003 38.5695C61.7814 39.8696 63.7338 42.387 64.1334 45.9197C64.6296 50.2747 63.0676 53.9269 59.4339 56.4581C52.5798 61.2266 42.5743 57.8041 39.4183 49.6132C37.1214 43.6411 38.5271 38.4041 42.9464 33.8837C43.5528 33.259 44.2603 33.0339 43.3736 31.6878C42.5835 30.4843 43.0796 28.4354 43.0107 26.7586C44.9999 27.7371 44.0719 29.175 43.8376 30.4659C45.3261 30.1948 46.6445 28.5318 48.6199 29.0326C48.5785 29.492 48.2524 30.1856 49.2492 29.7906C50.3455 29.3005 51.5307 29.041 52.7314 29.028C52.9152 29.5149 53.2459 29.9468 53.0943 30.5348C50.8755 30.9528 48.6015 31.2422 46.9707 33.0752C45.7763 34.4534 44.7518 36.0061 43.1394 36.9754C42.1838 36.6584 41.9771 37.4853 41.6234 38.0136C40.4114 39.8856 39.8422 42.1013 40.0017 44.3256C40.2866 52.1353 45.8543 57.2896 53.5537 56.9037C55.4705 56.7799 57.3049 56.0786 58.8154 54.8921C60.3258 53.7055 61.4416 52.0893 62.0157 50.2564C63.3111 46.2137 62.4199 43.4896 58.8505 40.6367C58.5427 40.9721 58.7402 41.6612 58.1614 41.8909Z" fill="white"/>
<path d="M48.6219 29.028C47.0462 29.6849 45.5716 30.5807 43.8121 30.9298C43.0036 29.6573 44.2715 27.9438 43.0128 26.754C42.0389 23.7726 41.8184 20.5431 39.4984 18.0256C38.8033 17.3129 38.017 16.695 37.1602 16.188C37.6195 14.8099 38.6072 15.7287 39.3744 15.7287C46.8624 18.2048 48.6587 23.3545 48.6219 29.028Z" fill="white"/>
<path d="M104.141 16.1651C103.122 15.9492 102.304 17.456 101.054 16.3948C100.673 16.064 100.195 17.0885 100.136 17.6673C100.053 18.3839 100.494 18.7882 101.215 18.8571C101.675 18.8985 102.451 18.3518 102.543 19.1603C102.658 20.1204 101.711 19.7391 101.211 19.8494C100.26 20.0607 100.03 20.7176 100.053 21.5491C100.237 27.9392 99.6394 34.3431 100.379 40.724C100.554 42.1895 99.3271 42.7959 98.6563 43.7468H96.8647C99.3822 43.145 99.5062 41.2845 99.4924 39.2264C99.4465 32.4321 99.4051 25.6331 99.52 18.8387C99.5522 16.9644 98.9228 16.3764 97.1771 16.6245C96.6471 16.7026 96.1085 16.7026 95.5784 16.6245C93.1575 16.2248 91.6553 17.162 90.957 19.5324C90.7137 20.2521 90.3365 20.9192 89.8453 21.4986C89.6188 21.8173 89.2793 22.0376 88.8959 22.1145C88.5126 22.1913 88.1144 22.1189 87.7826 21.9121C86.9603 21.4527 87.5851 20.7957 87.7459 20.3088C87.9862 19.562 88.077 18.7751 88.0132 17.9932C87.9494 17.2113 87.7321 16.4496 87.3738 15.7516H104.183C104.288 15.8481 104.321 15.9446 104.279 16.0365C104.238 16.1283 104.183 16.1651 104.141 16.1651Z" fill="white"/>
<path d="M93.1827 5.84723C93.1827 4.31747 93.1827 2.7923 93.1827 1.25334C93.1827 0.587229 93.224 0.0175864 94.129 0.0773069C94.8916 0.12784 94.9238 0.642356 94.9238 1.20281C94.9629 1.73652 94.9629 2.27237 94.9238 2.80608C94.5976 4.88251 95.3832 5.48891 97.5147 5.48891C99.6463 5.48891 100.455 4.9698 100.129 2.84742C100.067 2.1628 100.067 1.47398 100.129 0.789359C100.129 0.169184 100.588 0.0681194 101.08 0.0864949C101.498 0.0864949 101.828 0.261062 101.828 0.738826C101.828 4.10768 101.828 7.47653 101.828 10.8454C101.828 11.4196 101.502 11.6401 100.956 11.6309C100.842 11.645 100.727 11.633 100.619 11.596C100.511 11.559 100.413 11.498 100.332 11.4174C100.251 11.3369 100.189 11.239 100.152 11.1311C100.114 11.0233 100.101 10.9083 100.115 10.7948C100.115 10.4917 100.115 10.1839 100.115 9.87607C100.028 6.53172 99.3201 6.0218 95.9344 6.57306C94.4047 6.82573 95.1764 7.95123 94.933 8.68626C94.616 9.65097 95.7323 11.4839 94.129 11.4931C92.2501 11.4931 93.4767 9.60503 93.2378 8.59438C93.0219 7.72154 93.1827 6.76601 93.1827 5.84723Z" fill="white"/>
<path d="M128.567 11.7641C126.334 11.7641 124.965 11.3966 124.083 10.0552C123.78 9.59583 123.215 8.92513 123.83 8.45655C124.446 7.98797 125.02 8.27279 125.388 9.10429C125.916 10.3125 127.055 10.6157 128.263 10.4457C129.021 10.3355 129.761 10.0323 129.931 9.11807C130.036 8.70479 129.979 8.26684 129.772 7.89429C129.564 7.52174 129.222 7.24291 128.815 7.11513C127.974 6.7614 127.097 6.49955 126.26 6.14123C124.74 5.49349 123.559 4.46446 123.941 2.67284C124.349 0.766379 125.847 0.0175754 127.703 0.00838766C128.51 -0.0455403 129.313 0.161636 129.993 0.599282C130.673 1.03693 131.194 1.68181 131.479 2.43855C131.635 2.80606 131.677 3.20573 131.181 3.35733C130.611 3.53649 130.142 3.4584 129.894 2.81066C129.435 1.60706 128.456 1.34061 127.294 1.43249C126.449 1.49681 125.838 1.82297 125.659 2.72797C125.552 3.09718 125.591 3.49303 125.767 3.83458C125.943 4.17614 126.243 4.43761 126.605 4.56552C127.441 4.92844 128.305 5.23164 129.15 5.57618C130.758 6.2377 131.998 7.26214 131.635 9.17319C131.526 9.90423 131.154 10.5704 130.589 11.0473C130.025 11.5241 129.306 11.779 128.567 11.7641Z" fill="white"/>
<path d="M5.87436 43.7606C5.70958 43.8055 5.53539 43.802 5.3725 43.7507C5.20962 43.6994 5.0649 43.6024 4.95558 43.4712C4.193 42.1757 2.44732 42.2125 1.61582 41.0089C-0.883251 38.1607 -0.22173 34.4764 2.93427 33.7092C3.5275 33.5475 4.15597 33.5708 4.73559 33.776C5.3152 33.9813 5.8183 34.3586 6.17756 34.8577C7.06418 35.928 5.81464 36.2358 5.41497 36.856C4.0368 38.9646 5.28634 42.3411 7.76245 43.2874C7.37656 44.4681 6.54966 43.8525 5.87436 43.7606Z" fill="white"/>
<path d="M137.607 11.778C136.838 11.8416 136.066 11.6943 135.375 11.3519C134.683 11.0095 134.099 10.4849 133.683 9.83476C133.417 9.44887 133.003 8.80113 133.596 8.42443C134.115 8.09367 134.717 8.12583 135.052 8.92517C135.65 10.3585 136.839 10.6846 138.268 10.409C138.653 10.3752 139.014 10.2056 139.286 9.93044C139.558 9.65528 139.723 9.29247 139.752 8.90679C139.806 8.56281 139.74 8.21074 139.567 7.90905C139.393 7.60736 139.121 7.37423 138.796 7.2484C137.827 6.78901 136.807 6.495 135.838 6.05399C134.414 5.40625 133.307 4.391 133.688 2.70045C134.115 0.793982 135.613 0.0543663 137.464 0.0268029C138.272 -0.034165 139.078 0.168337 139.761 0.603967C140.445 1.0396 140.968 1.6849 141.254 2.44319C141.401 2.78773 141.461 3.23334 140.965 3.36197C140.468 3.4906 139.89 3.46763 139.655 2.81989C139.168 1.44172 138.089 1.27175 136.867 1.44172C136.479 1.46106 136.112 1.62185 135.836 1.89363C135.559 2.16541 135.391 2.5293 135.365 2.91636C135.303 3.26167 135.368 3.61752 135.547 3.91929C135.725 4.22106 136.006 4.44874 136.339 4.56097C137.179 4.91011 138.043 5.22249 138.897 5.54866C140.675 6.22855 141.759 7.45512 141.328 9.41212C140.896 11.3691 139.279 11.6723 137.607 11.778Z" fill="white"/>
<path d="M88.1047 6.51786C86.8047 6.22385 85.8997 6.27898 85.9548 8.07059C86.0007 9.53605 86.0145 10.5145 87.9807 10.4135C89.0649 10.3629 91.0724 9.4947 91.1964 11.1301C91.2653 12.127 89.1384 11.5895 88.0175 11.6171C84.3423 11.6952 84.3423 11.6446 84.3423 7.90521C84.3423 5.76906 84.3883 3.6329 84.3423 1.50133C84.3056 0.412583 84.6685 0.00831987 85.7665 0.0634465C87.2135 0.136949 88.6652 0.0634454 90.1123 0.0910087C90.6084 0.0910087 91.2745 -0.0559956 91.3205 0.747935C91.3664 1.55187 90.7416 1.50593 90.2087 1.51971C89.5243 1.51971 88.8306 1.55187 88.1507 1.51971C86.9195 1.4508 85.9732 1.42783 85.9824 3.21485C85.9916 5.00188 86.7174 5.16266 88.1782 5.18104C88.9546 5.18104 90.7554 4.1566 90.3925 6.43517C89.6345 7.20694 88.8811 7.11966 88.1047 6.51786Z" fill="white"/>
<path d="M108.194 9.03535C109.195 6.21929 110.077 3.80291 110.913 1.37274C111.175 0.600967 111.41 -0.202964 112.42 0.127796C113.582 0.509089 112.677 1.30843 112.517 1.777C111.492 4.72628 110.362 7.6388 109.278 10.5697C109.09 11.0796 108.97 11.5758 108.277 11.6309C107.44 11.6998 107.266 11.0888 107.055 10.5284C105.92 7.53774 104.785 4.5563 103.701 1.53812C103.54 1.07873 102.819 0.412618 103.88 0.114015C104.56 -0.0743341 105.01 0.224268 105.258 0.940915C105.993 3.10464 106.779 5.24998 107.555 7.39992C107.688 7.79959 107.858 8.19467 108.194 9.03535Z" fill="white"/>
<path d="M70.7199 18.6136C70.9056 19.0211 71.0398 19.4501 71.1195 19.8907C71.1655 20.736 73.2235 21.007 71.8086 22.2198C71.2672 22.7043 70.5953 23.0188 69.8765 23.1242C69.1576 23.2296 68.4237 23.1212 67.766 22.8124C67.1962 22.5769 66.724 22.1539 66.4274 21.6134C66.1308 21.0729 66.0277 20.4473 66.1352 19.8402C66.3085 18.8057 66.5494 17.7837 66.8564 16.7807C67.7017 15.0993 69.2682 15.8986 70.3018 16.1191C71.5238 16.3856 70.7612 17.7224 70.7199 18.6136Z" fill="white"/>
<path d="M14.4228 17.6214C13.6511 16.675 12.4429 16.5877 11.4414 16.0916C11.9008 14.9891 12.7231 15.6322 13.4168 15.6322C15.2957 16.2708 17.2159 16.822 18.4701 18.531C20.0963 20.7177 19.9493 22.4312 17.9234 24.4754C17.3951 24.6638 16.8714 24.4479 16.3523 24.4157C14.1472 24.2641 14.0186 24.0069 14.8868 21.981C15.5621 20.4604 15.6494 18.9582 14.4228 17.6214Z" fill="white"/>
<path d="M104.139 16.1651C104.139 16.0273 104.149 15.8895 104.167 15.7516H124.84C123.746 16.5234 122.506 16.0824 121.339 16.1192C120.351 16.1513 119.708 16.3259 119.768 17.4606C118.468 16.6842 117.241 15.2831 115.633 16.969C114.016 16.3121 112.951 16.8496 112.386 18.4712C111.402 16.9644 106.675 15.8435 105.035 16.7072C104.42 17.0287 104.53 17.5938 104.53 18.0853C104.564 26.1491 104.605 34.213 104.654 42.2768C103.827 41.6428 104.153 40.7286 104.153 39.9385C104.13 32.0554 104.139 24.1171 104.139 16.1651Z" fill="white"/>
<path d="M60.0833 28.5089C62.2149 28.0036 63.9606 26.8781 65.6511 24.6868V33.1625C63.9284 31.3249 62.2471 30.0065 60.0925 29.5287C59.969 29.3881 59.9002 29.2077 59.8985 29.0205C59.8968 28.8333 59.9624 28.6518 60.0833 28.5089Z" fill="white"/>
<path d="M70.7225 18.6137C70.5158 15.7884 69.6337 15.3658 66.859 16.7761C64.4932 16.744 62.1181 16.7761 59.7569 16.6567C58.3787 16.5832 58.1215 17.1758 58.0847 18.3932C58.0066 21.2092 58.3925 24.0345 57.855 26.8367C57.8275 23.9701 57.7264 21.099 57.7953 18.2324C57.8321 16.551 57.3956 15.7149 55.604 16.3948C54.869 16.6659 54.4555 16.3948 54.1523 15.7609H73.0654C71.5402 16.5556 71.1405 17.5892 70.7225 18.6137Z" fill="white"/>
<path d="M138.677 17.6489C138.86 18.4621 138.979 19.2885 139.031 20.1204C139.031 20.7452 140.083 21.5537 138.829 22.0223C137.759 22.4219 137.014 21.8385 136.532 21.007C135.747 19.6288 135.094 18.1588 134.387 16.7301C135.356 15.0625 136.895 16.1145 138.14 16.0594C139.123 16.0181 138.815 16.9966 138.677 17.6489Z" fill="white"/>
<path d="M117.76 52.2638C116.193 54.4551 116.193 54.4551 114.498 51.9928C114.062 52.861 114.756 53.9222 113.869 54.9007C113.037 53.1412 113.607 51.4093 113.478 49.7555C113.451 49.4294 113.74 49.241 114.076 49.1997C114.266 49.1693 114.46 49.2089 114.623 49.3111C114.786 49.4133 114.907 49.5712 114.962 49.7555C115.311 50.6513 115.642 51.5609 116.18 53.008C116.722 51.6666 117.098 50.8075 117.415 49.9393C117.595 49.4799 117.838 49.1032 118.403 49.2502C118.862 49.3788 118.821 49.8244 118.826 50.169C118.826 51.2348 118.867 52.3051 118.826 53.3847C118.826 53.8441 119.092 54.6388 118.339 54.6848C117.585 54.7307 117.838 53.936 117.765 53.472C117.737 53.0698 117.735 52.6662 117.76 52.2638Z" fill="white"/>
<path d="M112.398 18.5034C112.76 17.773 111.561 16.6291 112.558 16.3489C113.477 16.087 114.924 15.4301 115.645 17.0012C114.993 18.1956 115.246 19.2981 115.93 20.4007C116.178 20.8049 116.776 21.494 115.93 21.9626C115.639 22.1539 115.287 22.2306 114.943 22.178C114.599 22.1254 114.286 21.9472 114.065 21.6778C113.255 20.7743 112.682 19.6834 112.398 18.5034Z" fill="white"/>
<path d="M128.239 52.5854C128.735 51.4599 128.032 50.2471 129.079 48.7357C129.54 50.5712 129.599 52.4843 129.254 54.3449C129.093 55.3371 128.183 54.8823 127.761 54.2346C127.191 53.3572 126.709 52.3971 126.079 51.3175C125.588 52.5624 126.18 53.7339 125.432 54.9696C124.642 53.1321 125.115 51.4783 125.023 49.875C125.003 49.7218 125.044 49.567 125.136 49.4434C125.229 49.3199 125.366 49.2374 125.519 49.2135C125.978 49.1216 126.203 49.3881 126.438 49.7326C127.03 50.6514 127.209 51.8458 128.239 52.5854Z" fill="white"/>
<path d="M103.189 55.1488C101.93 52.6313 100.653 52.9161 99.0547 54.6572C99.5141 53.0493 99.8862 51.4047 100.474 49.8474C100.823 48.9286 101.632 48.7633 102.059 49.8474C102.693 51.4139 103.157 53.0631 103.695 54.648L103.189 55.1488Z" fill="white"/>
<path d="M111.993 52.0434C111.534 52.9162 110.119 51.8826 110.045 53.2102C109.958 54.7446 111.488 53.8442 112.214 54.5884C110.992 55.0064 109.522 55.374 109.127 54.3909C108.812 53.6149 108.656 52.7836 108.669 51.9463C108.681 51.1091 108.862 50.2829 109.2 49.5168C109.613 48.6761 111.162 49.016 112.237 49.4111C111.878 50.702 110.197 49.4616 110.105 50.7525C110.013 52.0434 111.575 51.1062 111.993 52.0434Z" fill="white"/>
<path d="M138.679 17.649C138.082 15.9217 136.795 15.646 134.406 16.7302C132.142 16.7302 129.872 16.7807 127.617 16.6567C126.307 16.5832 125.444 16.9966 124.897 18.1543C124.608 17.2815 125.223 16.5648 125.311 15.7563H139.244C139.291 16.4349 139.091 17.1076 138.679 17.649Z" fill="white"/>
<path d="M5.875 43.7606C6.50436 43.5998 7.25317 43.9306 7.76309 43.3012C10.4919 43.9444 13.1012 43.7606 15.5038 42.1757C15.3063 43.0945 15.5038 43.6366 16.4777 42.9659C17.2219 42.4468 17.8237 41.7117 18.8711 41.9277C14.9066 45.2444 10.4689 45.1664 5.875 43.7606Z" fill="white"/>
<path d="M151.925 52.0755C151.59 52.9208 149.922 51.8321 150.046 53.371C150.152 54.7492 151.461 53.8304 152.196 54.6803C151.062 54.9375 149.67 55.2867 149.261 54.6114C148.383 53.1597 148.687 51.2532 149.141 49.7418C149.495 48.5658 151.052 49.2825 152.114 49.2825C152.017 50.7663 150.276 49.4938 150.102 50.6606C149.844 52.1674 151.705 51.0787 151.925 52.0755Z" fill="white"/>
<path d="M94.025 49.9256C93.391 50.4585 93.0327 50.1783 92.6698 50.1599C92.1599 50.1323 91.4983 49.921 91.3743 50.6606C91.2824 51.1981 91.8015 51.3727 92.2563 51.4875C93.6345 51.8413 94.6819 52.6636 93.8275 54.0647C92.9087 55.5807 91.4708 55.2867 90.1523 54.3357C90.4969 53.4905 90.9103 54.0188 91.2824 54.0877C91.9531 54.2025 92.7984 54.4092 93.0465 53.5869C93.2762 52.8381 92.4585 52.6452 91.9118 52.4339C90.846 52.025 89.693 51.4416 90.4234 50.1783C91.2457 48.7128 92.5963 48.9471 94.025 49.9256Z" fill="white"/>
<path d="M123.426 52.0433C123.008 52.9988 121.401 51.7584 121.364 53.2744C121.327 54.7904 122.935 53.7338 123.417 54.6802C122.351 54.9099 120.923 55.3692 120.537 54.4413C119.9 52.8739 119.91 51.1181 120.564 49.558C121.001 48.5887 122.434 49.3145 123.482 49.1445C123.344 50.7708 121.304 49.4477 121.391 50.8718C121.469 52.1535 122.939 51.0786 123.426 52.0433Z" fill="white"/>
<path d="M87.1293 54.7767C85.9486 54.7492 84.4648 55.452 84.1019 54.3816C83.5966 52.8703 83.4955 50.973 84.1846 49.5029C84.5889 48.6393 86.0543 49.2043 87.0696 49.3284C86.996 50.8535 84.6945 49.2732 84.961 50.9913C85.1447 52.1444 86.5504 51.0603 86.9823 51.9836C86.7296 53.0678 84.8691 51.7034 84.9058 53.3021C84.9426 54.9007 86.454 53.7523 87.1293 54.7767Z" fill="white"/>
<path d="M148.119 49.5397C147.577 50.656 146.033 49.4616 145.863 50.8076C145.716 51.9883 147.099 51.3681 147.54 52.149C147.168 52.8473 145.578 51.9653 145.675 53.394C145.707 53.8534 145.987 54.864 144.995 54.6665C144.264 54.5241 144.664 53.6421 144.595 53.0908C144.567 52.6318 144.567 52.1716 144.595 51.7126C144.609 48.7817 144.875 48.598 148.119 49.5397Z" fill="white"/>
<path d="M72.1641 49.5259C73.8786 49.1014 75.6663 49.0653 77.3965 49.4203C74.9939 50.2931 75.637 52.0342 75.5589 53.5548C75.5314 54.0142 75.784 54.8043 74.9296 54.7033C74.314 54.6344 74.6815 53.9636 74.5804 53.564C74.1992 52.1353 75.5406 50.114 72.1641 49.5259Z" fill="white"/>
<path d="M98.6218 49.4753C95.8103 50.4998 97.974 53.2193 96.7337 54.8548C95.259 53.2974 97.6938 50.44 94.207 49.6453C95.916 48.9424 97.2206 49.2135 98.6218 49.4753Z" fill="white"/>
<path d="M104.125 49.2687H108.636C105.37 50.4769 107.175 53.1 105.972 55.1718C105.347 53.8258 105.512 52.783 105.576 51.8183C105.632 50.6423 105.406 49.7924 103.5 49.9807C103.725 49.7418 103.913 49.503 104.125 49.2687Z" fill="white"/>
<path d="M132.291 54.9605C130.73 53.2424 133.256 50.4953 129.535 49.526C131.273 49.0823 133.092 49.0571 134.841 49.4525C131.437 50.4815 133.495 53.1689 132.291 54.9605Z" fill="white"/>
<path d="M14.422 17.6213C16.1769 18.6136 15.9334 20.5109 15.3408 21.6364C14.2521 23.7817 14.9457 24.1125 16.8752 24.062C17.2197 24.062 17.5734 24.3376 17.9226 24.4846C16.719 25.4034 15.52 25.2058 14.3991 24.3698C13.8524 23.9655 13.2644 23.3269 13.9397 22.6608C15.6027 21.0759 15.1065 19.3808 14.422 17.6213Z" fill="white"/>
<path d="M81.212 52.4798C78.9518 51.6253 78.915 53.3986 78.4786 54.8548C77.6288 53.1321 78.0192 51.3681 78.0192 49.6545C78.0192 49.5259 78.3041 49.3054 78.4786 49.2824C78.8691 49.2319 78.9977 49.5627 78.938 49.8613C78.6716 51.8504 79.8935 51.6988 81.189 51.4416C81.3296 51.5763 81.4109 51.7613 81.4152 51.9559C81.4195 52.1506 81.3464 52.339 81.212 52.4798Z" fill="white"/>
<path d="M13.4162 15.6414C12.7685 15.8297 12.0013 15.5173 11.4408 16.1007C9.55156 16.0378 7.67104 16.3841 5.92816 17.116C6.46105 15.8665 5.40445 16.2891 4.89453 16.1375C7.65546 14.7869 10.5174 14.9109 13.4162 15.6414Z" fill="white"/>
<path d="M137.896 49.1262C139.022 50.8673 136.518 54.1795 140.96 54.2392C137.667 55.4107 137.184 55.158 137.285 52.4476C137.317 51.3818 136.674 50.0909 137.896 49.1262Z" fill="white"/>
<path d="M140.898 49.3651C141.872 49.14 142.534 49.039 143.287 49.4386C142.948 50.0148 142.729 50.654 142.644 51.3175C142.56 51.9809 142.611 52.6546 142.796 53.2975C143.361 55.1902 142.543 55.0524 141.229 54.7078C141.822 52.9162 142.143 51.1613 140.898 49.3651Z" fill="white"/>
<path d="M60.0813 28.5089C60.0813 28.8488 60.0813 29.1888 60.0813 29.5287C58.5746 29.4323 57.9314 30.0341 58.083 31.6327C58.3035 33.9297 57.8349 36.2863 58.3724 38.5925C57.5363 38.2158 57.7844 37.4578 57.7844 36.8376C57.7844 33.9021 57.8395 30.9666 57.8763 28.0311C58.4735 28.7018 59.3188 28.3986 60.0813 28.5089Z" fill="white"/>
<path d="M81.2136 52.4798V51.4415C81.192 51.2892 81.192 51.1345 81.2136 50.9822C81.3835 50.4079 80.7771 49.3284 81.7511 49.3467C82.725 49.3651 82.1048 50.4263 82.2104 51.0051C82.3092 51.5242 82.3092 52.0572 82.2104 52.5762C82.068 53.2929 82.7525 54.6251 81.6775 54.5929C80.7266 54.5792 81.3835 53.2194 81.2136 52.4798Z" fill="white"/>
<path d="M31.9336 43.8019C32.664 43.2231 33.8538 44.615 34.3959 43.2277L37.6714 43.8984C35.7327 45.0193 33.8217 44.5966 31.9336 43.8019Z" fill="white"/>
<path d="M31.5711 17.4468C31.5711 16.8313 31.1485 16.6842 30.6523 16.597C31.7109 15.7511 33.0276 15.2938 34.3826 15.3015C35.0303 15.8849 36.2201 14.8926 36.652 16.0641C35.7557 15.9454 34.8447 16.0066 33.9723 16.244C33.1 16.4814 32.2837 16.8903 31.5711 17.4468Z" fill="white"/>
<path d="M144.086 15.7471C143.93 16.234 143.77 16.721 143.627 17.2125L141.238 16.0916L141.303 15.7471H144.086Z" fill="white"/>
<path d="M1.59766 41.0089C2.71857 41.822 4.53315 41.6887 4.93741 43.4712C3.70166 42.8097 2.23621 42.4743 1.59766 41.0089Z" fill="white"/>
<path d="M36.6522 16.064C36.0596 15.3336 34.9708 16.064 34.3828 15.3014C36.0596 15.205 37.7639 14.7685 39.3626 15.6781C38.623 15.8435 37.7593 15.4117 37.1483 16.1375L36.6522 16.064Z" fill="white"/>
<path d="M52.731 15.7516C52.731 16.2432 52.6989 16.7301 52.6805 17.2217L49.8828 15.9354C50.7968 15.6114 51.7829 15.5478 52.731 15.7516Z" fill="white"/>
<path fill-rule="evenodd" clip-rule="evenodd" d="M80.5892 0.844465C78.9354 -0.363727 75.0031 -0.157003 73.9648 1.05578C74.2208 3.00542 74.1905 4.96045 74.1602 6.91637C74.1421 8.08516 74.124 9.25426 74.167 10.4227C74.167 11.0751 74.167 11.6631 75.0858 11.6125C75.8182 11.5665 75.8109 11.0744 75.8038 10.5947C75.8031 10.5478 75.8024 10.5011 75.8024 10.4549C75.8438 9.92279 75.8438 9.38829 75.8024 8.85621C75.5635 7.0554 76.3307 6.49495 78.0212 6.95434C79.6475 6.61439 80.2171 7.52398 80.3182 8.95727C80.3347 9.19604 80.3391 9.43573 80.3436 9.6751C80.3491 9.96997 80.3546 10.2644 80.3825 10.5559C80.4606 11.4196 80.9751 11.7366 81.7974 11.5896C82.5554 11.4562 82.3698 11.0441 82.2072 10.6829C82.1569 10.5712 82.1088 10.4644 82.0914 10.3722C82.0168 9.97818 81.9955 9.56962 81.9743 9.16076C81.9208 8.13474 81.8673 7.1068 80.9705 6.302C80.6214 5.9894 80.8606 5.70909 81.0859 5.44521C81.1155 5.41049 81.1449 5.37606 81.1727 5.34188C82.56 3.64214 82.243 2.05266 80.5892 0.844465ZM77.7612 1.46461C76.4519 1.43245 75.4183 1.52892 75.8363 3.30216C75.6434 4.50117 75.6112 5.56695 77.412 5.4521C77.4332 5.45078 77.4544 5.44945 77.4755 5.44813C78.9178 5.35811 80.2832 5.27289 80.2832 3.38945C80.274 1.80915 79.0704 1.49676 77.7612 1.46461Z" fill="white"/>
<path fill-rule="evenodd" clip-rule="evenodd" d="M151.156 8.952C150.886 8.32153 150.616 7.69104 150.616 6.97724L150.492 6.55001C149.926 5.63863 149.605 4.63373 149.285 3.62916C149.099 3.04374 148.912 2.45843 148.677 1.89181C148.609 1.72897 148.561 1.54305 148.512 1.35393C148.353 0.742709 148.187 0.0980178 147.299 0.0910011C146.431 0.0841378 146.326 0.679691 146.23 1.23233C146.197 1.41949 146.165 1.60174 146.105 1.75399C145.08 4.3771 144.111 7.02318 143.243 9.70142C143.197 9.83701 143.092 9.99283 142.98 10.1574C142.654 10.6395 142.278 11.1965 143.206 11.539C144.194 11.9111 144.51 11.052 144.653 10.2481C144.869 9.01233 145.65 8.78723 146.789 8.78723C146.917 8.78874 147.045 8.78883 147.171 8.78891C148.596 8.78991 149.921 8.79083 150.166 10.7902C150.248 11.5803 150.914 11.7687 151.544 11.5344C152.147 11.3077 151.964 10.9624 151.78 10.6144C151.71 10.483 151.64 10.3511 151.613 10.2251C151.512 9.78476 151.334 9.36838 151.156 8.952ZM147.818 4.08512C147.685 3.74395 147.533 3.35542 147.361 2.88879C147.117 3.50793 146.914 3.9848 146.737 4.39832C146.581 4.76413 146.446 5.08036 146.323 5.40165C146.277 5.5234 146.217 5.65322 146.155 5.78627C145.91 6.31088 145.642 6.8855 146.181 7.21164C146.515 7.37565 146.88 7.46699 147.252 7.47966C147.624 7.49233 147.995 7.42604 148.34 7.28515C149.006 7.00598 148.758 6.48031 148.526 5.98799C148.452 5.83219 148.381 5.67972 148.34 5.53947C148.21 5.09143 148.04 4.65417 147.818 4.08512Z" fill="white"/>
<path d="M51.8539 39.4193C48.1788 42.4145 47.3657 45.6119 49.5064 48.4785C50.9259 50.3804 52.7589 50.8168 54.9042 49.7372C55.4188 49.4754 55.9884 48.8184 56.3559 49.7969C56.6315 50.5182 56.0941 50.8627 55.4601 51.1292C53.402 52.002 51.5461 51.4967 49.8326 50.2977C48.9296 49.7036 48.2151 48.864 47.7732 47.8776C47.3313 46.8912 47.1803 45.7991 47.3381 44.7299C47.6689 41.9046 49.0195 39.6766 51.7666 38.5327C51.8125 38.8267 51.8126 39.1345 51.8539 39.4193Z" fill="white"/>
<path d="M46.8179 37.3796C45.7246 40.2875 43.4506 42.024 40.8459 43.4114C39.973 43.6319 39.5412 43.1404 40.0052 42.4926C41.2639 40.7148 41.6636 38.4776 43.1474 36.8467C44.1075 35.2664 45.573 34.1271 46.7628 32.7536C47.4886 32.6249 48.3845 32.2299 48.141 33.631C47.6219 34.8622 47.2176 36.1255 46.8179 37.3796Z" fill="white"/>
<path fill-rule="evenodd" clip-rule="evenodd" d="M113.372 9.78129C113.371 9.78376 113.37 9.78623 113.369 9.78871L113.364 9.77033C113.367 9.77397 113.369 9.77763 113.372 9.78129ZM113.372 9.78129C113.525 10.0154 113.38 10.2926 113.237 10.5661C113.024 10.9737 112.815 11.3729 113.608 11.6079C114.554 11.8835 114.871 11.1117 114.986 10.464C115.262 8.88743 116.252 8.87744 117.29 8.86697C117.58 8.86404 117.873 8.86108 118.156 8.82399C119.699 8.62186 120.214 9.40282 120.421 10.6891C120.535 11.4103 120.94 11.7825 121.688 11.6079C122.583 11.4025 122.298 10.8753 122.077 10.4652C122.021 10.3615 121.969 10.2654 121.941 10.1838C121.215 8.00949 120.44 5.8534 119.664 3.69594C119.409 2.98622 119.154 2.27636 118.9 1.56564C118.858 1.44889 118.825 1.3261 118.791 1.20342C118.646 0.674491 118.501 0.147537 117.733 0.113976C116.956 0.0800096 116.795 0.610328 116.633 1.14711C116.598 1.26372 116.562 1.38064 116.52 1.49214C115.474 4.26436 114.424 7.02741 113.372 9.78129ZM117.689 2.66363C117.068 4.47821 116.609 5.81963 116.09 7.32642C116.241 7.3399 116.387 7.3542 116.529 7.36809C117.546 7.46778 118.343 7.5459 119.246 7.14267C118.947 6.28543 118.651 5.43382 118.312 4.45835C118.121 3.9074 117.916 3.31693 117.689 2.66363Z" fill="white"/>
<path d="M46.8173 37.3797C46.7931 36.0187 47.2466 34.6923 48.099 33.631C48.1134 34.9904 47.6609 36.3136 46.8173 37.3797Z" fill="white"/>
</svg>
