<svg width="24" height="24" viewBox="0 0 24 24" fill="none" xmlns="http://www.w3.org/2000/svg">
    <path
        d="M18.9312 10.2313L18.9312 10.2313L18.9395 10.2357C19.2596 10.406 19.5273 10.6601 19.714 10.9708C19.9007 11.2816 19.9994 11.6373 19.9994 11.9998C19.9994 12.3624 19.9007 12.7181 19.714 13.0288C19.5273 13.3396 19.2596 13.5937 18.9395 13.7639L18.9395 13.7639L18.9313 13.7683L6.11928 20.7353L6.11889 20.7355C4.69067 21.513 3 20.4825 3 18.9678V5.03282C3 3.51762 4.69044 2.48722 6.11922 3.2633C6.11933 3.26336 6.11944 3.26342 6.11955 3.26348L18.9312 10.2313Z"
        stroke="white" stroke-width="2" stroke="currentColor"/>
</svg>