<svg width="293" height="82" viewBox="0 0 293 82" fill="none" xmlns="http://www.w3.org/2000/svg">
<path d="M22.16 56.92C26.6933 59.0533 31.0133 61.3733 35.12 63.88C39.28 66.3333 43.5467 68.7067 47.92 71C49.2 71.6933 50.5067 72.3067 51.84 72.84C53.1733 73.3733 54.5867 73.9067 56.08 74.44C56.1867 74.5467 56.3467 74.6267 56.56 74.68C56.8267 74.7867 56.9067 74.9733 56.8 75.24C56.8 75.5067 56.64 75.64 56.32 75.64C56.0533 75.64 55.84 75.5867 55.68 75.48C52.4267 74.3067 49.3333 72.9733 46.4 71.48C43.4667 69.9867 40.5867 68.44 37.76 66.84C34.9333 65.24 32.08 63.6667 29.2 62.12C26.3733 60.52 23.4133 59.0267 20.32 57.64C19.68 57.8533 19.04 58.0667 18.4 58.28C17.8133 58.4933 17.2 58.68 16.56 58.84C15.6533 60.92 14.8 63.0267 14 65.16C13.2 67.3467 12.4267 69.56 11.68 71.8C11.5733 72.0133 11.6 72.1733 11.76 72.28C11.92 72.3867 11.9733 72.5733 11.92 72.84C11.6 73.2667 11.36 73.7467 11.2 74.28C11.0933 74.8133 10.72 75.1067 10.08 75.16C9.70667 75 9.46667 74.76 9.36 74.44C9.30667 74.12 9.30667 73.7467 9.36 73.32C9.46667 72.9467 9.6 72.5733 9.76 72.2C9.92 71.88 10.0533 71.5867 10.16 71.32C10.9067 69.2933 11.6267 67.2667 12.32 65.24C13.0667 63.2667 13.8133 61.3467 14.56 59.48C13.76 59.6933 12.8 59.9067 11.68 60.12C10.56 60.28 9.38667 60.3867 8.16 60.44C6.98667 60.44 5.84 60.36 4.72 60.2C3.65333 60.04 2.77333 59.72 2.08 59.24C1.76 58.9733 1.49333 58.68 1.28 58.36C1.01333 58.04 0.906667 57.5867 0.96 57C1.01333 56.4667 1.2 56.0667 1.52 55.8C1.78667 55.5333 2.05333 55.24 2.32 54.92C3.17333 54.3333 4.21333 53.9333 5.44 53.72C6.66667 53.4533 7.92 53.3467 9.2 53.4C10.5333 53.4 11.84 53.5333 13.12 53.8C14.4533 54.0133 15.6 54.3067 16.56 54.68C18.1067 51.1067 19.5733 47.7467 20.96 44.6C22.3467 41.4 23.68 38.28 24.96 35.24C26.24 32.1467 27.4667 29.1067 28.64 26.12C29.8133 23.08 30.9333 19.9333 32 16.68C32.16 16.2 32.3467 15.7467 32.56 15.32C32.7733 14.84 33.0933 14.6 33.52 14.6C33.7867 14.6533 34 14.8133 34.16 15.08C34.32 15.2933 34.4 15.48 34.4 15.64C34.4533 16.2267 34.32 16.6267 34 16.84C33.7333 17 33.52 17.2133 33.36 17.48C33.2 17.6933 32.8 18.5467 32.16 20.04C31.5733 21.48 30.8267 23.32 29.92 25.56C29.0133 27.7467 28 30.2267 26.88 33C25.8133 35.72 24.72 38.4667 23.6 41.24C22.5333 43.96 21.4933 46.5467 20.48 49C19.52 51.4533 18.6933 53.5067 18 55.16C18.4267 55.3733 18.8533 55.56 19.28 55.72C19.7067 55.88 20.1333 56.04 20.56 56.2C26.2667 53.96 31.4933 51.32 36.24 48.28C40.9867 45.24 45.52 41.9333 49.84 38.36C50.8533 37.4533 52.1067 36.3067 53.6 34.92C55.0933 33.5333 56.5867 31.9867 58.08 30.28C59.6267 28.5733 61.0667 26.76 62.4 24.84C63.7867 22.8667 64.8533 20.84 65.6 18.76C66.1867 17.2667 66.5333 15.6667 66.64 13.96C66.8 12.2 66.5067 10.5733 65.76 9.08C64.5333 6.62666 62.4267 4.81333 59.44 3.64C56.4533 2.41333 53.1733 1.85333 49.6 1.96C45.4933 2.12 41.3333 2.94666 37.12 4.44C32.96 5.88 29.04 7.72 25.36 9.96C21.7333 12.2 18.48 14.7333 15.6 17.56C12.72 20.3333 10.5333 23.16 9.04 26.04C8.66667 26.68 8.32 27.3733 8 28.12C7.73333 28.8667 7.68 29.6667 7.84 30.52C8.05333 30.7867 8.34667 30.9733 8.72 31.08C9.09333 31.1333 9.49333 31.16 9.92 31.16C10.3467 31.16 10.7733 31.1333 11.2 31.08C11.6267 31.0267 12 31 12.32 31C12.7467 31.1067 13.12 31.4267 13.44 31.96C13.76 32.44 13.68 32.8667 13.2 33.24C12.8267 33.3467 12.56 33.2933 12.4 33.08C12.24 32.8667 12.0267 32.7067 11.76 32.6C11.12 32.76 10.4533 32.84 9.76 32.84C9.06667 32.84 8.45333 32.7333 7.92 32.52C7.38667 32.3067 6.93333 31.9867 6.56 31.56C6.24 31.08 6.10667 30.4667 6.16 29.72C6.58667 27.16 7.44 25 8.72 23.24C10 21.48 11.3333 19.7733 12.72 18.12C15.9733 14.6533 19.7067 11.5867 23.92 8.92C28.1333 6.25333 32.8267 4.09333 38 2.43999C38.9067 2.17333 39.7867 1.90666 40.64 1.64C41.5467 1.37333 42.48 1.16 43.44 0.999999C45.04 0.679997 46.6933 0.493329 48.4 0.439997C50.1067 0.333331 51.7867 0.359998 53.44 0.519996C55.0933 0.679997 56.64 0.973331 58.08 1.4C59.5733 1.82666 60.88 2.38666 62 3.08C63.44 3.98666 64.6667 5.02666 65.68 6.2C66.7467 7.32 67.4933 8.76 67.92 10.52C68.5067 12.76 68.4533 15.0533 67.76 17.4C67.0667 19.7467 66.0267 22.0667 64.64 24.36C63.2533 26.6 61.6267 28.7333 59.76 30.76C57.9467 32.7867 56.1867 34.6 54.48 36.2C49.8933 40.4667 44.88 44.3333 39.44 47.8C34.0533 51.2133 28.2933 54.2533 22.16 56.92ZM2.24 57.32C2.34667 57.8 2.64 58.1733 3.12 58.44C3.6 58.6533 4.08 58.8133 4.56 58.92C5.41333 59.1333 6.32 59.24 7.28 59.24C8.24 59.24 9.17333 59.1867 10.08 59.08C11.04 58.9733 11.9467 58.84 12.8 58.68C13.6533 58.4667 14.4267 58.28 15.12 58.12C15.2267 57.7467 15.36 57.4 15.52 57.08C15.7333 56.76 15.8933 56.3867 16 55.96C14.5067 55.4267 12.96 55.08 11.36 54.92C9.81333 54.7067 8.37333 54.68 7.04 54.84C5.76 54.9467 4.69333 55.2133 3.84 55.64C2.93333 56.0667 2.4 56.6267 2.24 57.32ZM17.12 57.56C17.3867 57.4533 17.6533 57.3733 17.92 57.32C18.1867 57.2133 18.4533 57.1067 18.72 57C18.4533 56.8933 18.24 56.8133 18.08 56.76C17.92 56.6533 17.7067 56.5733 17.44 56.52C17.3867 56.68 17.3067 56.8667 17.2 57.08C17.0933 57.24 17.0667 57.4 17.12 57.56ZM66.1825 41.4C67.8892 41.9867 69.6492 42.0933 71.4625 41.72C73.2758 41.2933 74.8492 40.8133 76.1825 40.28C76.3425 40.1733 76.5292 40.0933 76.7425 40.04C77.0092 39.9333 77.1958 40.0133 77.3025 40.28C77.2492 40.7067 77.0358 40.9733 76.6625 41.08C76.2892 41.1333 75.9692 41.24 75.7025 41.4C74.4758 41.9867 72.9558 42.44 71.1425 42.76C69.3825 43.0267 67.7025 42.9467 66.1025 42.52C65.8892 43.2133 65.6492 43.88 65.3825 44.52C65.1692 45.1067 64.8492 45.6667 64.4225 46.2C64.1025 46.68 63.7025 47.16 63.2225 47.64C62.7425 48.0667 62.0758 48.28 61.2225 48.28L60.7425 48.04C60.4758 47.88 60.2625 47.56 60.1025 47.08C60.1025 46.0667 60.2892 45.1333 60.6625 44.28C61.0358 43.3733 61.4358 42.52 61.8625 41.72C62.2892 40.9733 62.7158 40.2533 63.1425 39.56C63.6225 38.8133 64.1558 38.1733 64.7425 37.64C64.9025 37.48 65.1958 37.2933 65.6225 37.08C65.9425 37.0267 66.1558 37.08 66.2625 37.24C66.4225 37.4 66.5558 37.5867 66.6625 37.8C66.6092 38.2267 66.5025 38.6 66.3425 38.92C66.1825 39.24 66.0225 39.56 65.8625 39.88C66.0758 40.2533 66.1825 40.76 66.1825 41.4ZM61.6225 46.68C62.4758 46.4667 63.2225 45.8267 63.8625 44.76C64.5558 43.6933 64.8758 42.7067 64.8225 41.8C64.7158 41.8 64.6358 41.9067 64.5825 42.12C64.5292 42.28 64.3958 42.36 64.1825 42.36C63.8092 42.36 63.6225 42.1467 63.6225 41.72C63.1958 42.4667 62.7958 43.2133 62.4225 43.96C61.9958 44.7067 61.7292 45.6133 61.6225 46.68ZM74.66 50.68C75.4067 49.6133 76.18 48.4933 76.98 47.32C77.8333 46.0933 78.66 44.9467 79.46 43.88C79.8867 43.4533 80.34 42.92 80.82 42.28C81.3533 41.64 81.8867 41.0533 82.42 40.52C83.0067 39.9333 83.5667 39.4533 84.1 39.08C84.6867 38.7067 85.2467 38.5467 85.78 38.6C86.4733 38.7067 86.9267 39.1333 87.14 39.88C87.3533 40.6267 87.4867 41.5067 87.54 42.52C87.5933 43.48 87.6467 44.44 87.7 45.4C87.7533 46.36 87.9667 47.08 88.34 47.56C88.8733 47.3467 89.3533 47.1067 89.78 46.84C90.26 46.52 90.7667 46.12 91.3 45.64C91.8333 45.16 92.4733 44.5733 93.22 43.88C93.9667 43.1867 94.9533 42.36 96.18 41.4C96.6067 40.9733 97.06 40.6267 97.54 40.36C97.7 40.2533 97.94 40.1467 98.26 40.04C98.6333 39.88 98.8733 40.0133 98.98 40.44C98.9267 40.7067 98.7667 40.8667 98.5 40.92C98.2867 40.9733 98.1 41.0533 97.94 41.16C97.0333 41.6933 96.2333 42.36 95.54 43.16C94.8467 43.9067 94.1 44.5733 93.3 45.16C92.9267 45.48 92.5533 45.8 92.18 46.12C91.8067 46.44 91.4067 46.8133 90.98 47.24C90.6067 47.56 90.1533 47.9067 89.62 48.28C89.14 48.6533 88.6067 48.7867 88.02 48.68C87.38 48.52 86.9533 48.0667 86.74 47.32C86.5267 46.5733 86.3933 45.7467 86.34 44.84C86.34 43.88 86.3133 42.9467 86.26 42.04C86.2067 41.08 85.9933 40.36 85.62 39.88C84.7133 40.1467 84.02 40.5733 83.54 41.16C83.06 41.6933 82.5267 42.2267 81.94 42.76C81.46 43.3467 80.98 43.96 80.5 44.6C80.02 45.1867 79.54 45.8 79.06 46.44C78.1533 47.72 77.4067 48.84 76.82 49.8C76.2333 50.7067 75.7533 51.48 75.38 52.12C74.9533 52.76 74.6067 53.24 74.34 53.56C74.0733 53.88 73.8067 54.04 73.54 54.04C73.22 54.04 73.0067 53.9333 72.9 53.72C72.7933 53.5067 72.74 53.24 72.74 52.92C72.74 52.6 72.7933 52.28 72.9 51.96C72.9533 51.5867 73.0067 51.2667 73.06 51C73.1667 50.4667 73.3 49.9333 73.46 49.4C73.5667 48.8133 73.7 48.28 73.86 47.8C75.46 42.52 77.2733 37.5067 79.3 32.76C81.38 28.0133 83.78 23.56 86.5 19.4C86.9267 18.6533 87.4333 17.9067 88.02 17.16C88.66 16.36 89.3267 15.56 90.02 14.76C90.66 14.0133 91.3267 13.2933 92.02 12.6C92.7133 11.8533 93.5133 11.32 94.42 11C94.8467 10.8933 95.22 10.84 95.54 10.84C95.9133 10.7867 96.26 10.8933 96.58 11.16C97.1133 11.8533 97.2467 12.68 96.98 13.64C96.7133 14.6 96.4733 15.4267 96.26 16.12C95.0867 18.5733 93.78 20.92 92.34 23.16C90.9533 25.4 89.4867 27.5867 87.94 29.72C86.3933 31.8533 84.82 33.9333 83.22 35.96C81.62 37.9867 79.7533 39.7733 77.62 41.32C77.0867 42.8667 76.58 44.4133 76.1 45.96C75.5667 47.4533 75.0867 49.0267 74.66 50.68ZM95.62 14.44C95.6733 14.28 95.7267 14.0667 95.78 13.8C95.8333 13.48 95.86 13.1867 95.86 12.92C95.86 12.6533 95.8067 12.44 95.7 12.28C95.6467 12.12 95.4867 12.0933 95.22 12.2C94.3133 12.6267 93.3533 13.3467 92.34 14.36C91.38 15.3733 90.4467 16.4933 89.54 17.72C88.6867 18.9467 87.86 20.1733 87.06 21.4C86.3133 22.6267 85.6733 23.6667 85.14 24.52C83.86 26.92 82.66 29.3733 81.54 31.88C80.42 34.3867 79.3267 36.9733 78.26 39.64C81.2467 36.92 83.9133 33.9067 86.26 30.6C88.6067 27.2933 90.8467 23.8267 92.98 20.2C93.3 19.6133 93.62 19.0267 93.94 18.44C94.26 17.8 94.5533 17.1333 94.82 16.44C94.9267 16.2267 95.06 15.96 95.22 15.64C95.38 15.32 95.5133 14.92 95.62 14.44ZM100.716 33.88C101.036 33.8267 101.276 33.88 101.436 34.04C101.649 34.2 101.782 34.4133 101.836 34.68C101.889 34.8933 101.862 35.1067 101.756 35.32C101.649 35.5333 101.462 35.64 101.196 35.64C100.769 35.64 100.476 35.4 100.316 34.92C100.156 34.44 100.289 34.0933 100.716 33.88ZM96.2356 48.36C96.9823 48.4133 97.6756 48.2533 98.3156 47.88C98.9556 47.5067 99.569 47.1333 100.156 46.76C101.596 45.8533 103.009 44.8933 104.396 43.88C105.782 42.8667 107.249 41.9333 108.796 41.08C109.062 40.9733 109.382 40.8133 109.756 40.6C110.129 40.3867 110.449 40.4133 110.716 40.68C110.662 41.0533 110.422 41.32 109.996 41.48C109.622 41.5867 109.302 41.72 109.036 41.88C107.489 42.7333 105.996 43.6933 104.556 44.76C103.116 45.7733 101.676 46.76 100.236 47.72C99.649 48.0933 99.009 48.4667 98.3156 48.84C97.6756 49.2133 96.9556 49.4267 96.1556 49.48C95.5156 49.2667 95.089 48.8933 94.8756 48.36C94.6623 47.8267 94.609 47.2133 94.7156 46.52C94.769 45.8267 94.929 45.1333 95.1956 44.44C95.409 43.6933 95.649 43.0267 95.9156 42.44C96.129 42.0667 96.3156 41.7467 96.4756 41.48C96.6356 41.16 96.8223 40.8133 97.0356 40.44C97.249 40.12 97.489 39.7467 97.7556 39.32C98.0223 38.8933 98.3156 38.68 98.6356 38.68C98.9023 38.6267 99.1156 38.7067 99.2756 38.92C99.4356 39.08 99.5156 39.24 99.5156 39.4C99.569 39.8267 99.409 40.2 99.0356 40.52C98.7156 40.84 98.4756 41.1333 98.3156 41.4C98.049 41.72 97.8356 42.0933 97.6756 42.52C97.5156 42.9467 97.329 43.4 97.1156 43.88C97.009 44.1467 96.8756 44.4933 96.7156 44.92C96.5023 45.2933 96.3423 45.6933 96.2356 46.12C96.0756 46.5467 95.9956 46.9733 95.9956 47.4C95.9423 47.7733 96.0223 48.0933 96.2356 48.36ZM128.89 21.72C129.743 21.6667 131.103 21.6133 132.97 21.56C134.837 21.4533 136.783 21.4267 138.81 21.48C140.837 21.5333 142.73 21.6667 144.49 21.88C146.25 22.04 147.477 22.3867 148.17 22.92C148.223 23.0267 148.33 23.1867 148.49 23.4C148.703 23.6133 148.863 23.8533 148.97 24.12C149.13 24.3867 149.183 24.6533 149.13 24.92C149.13 25.1333 148.97 25.2667 148.65 25.32C148.277 25.4267 147.93 25.2667 147.61 24.84C147.343 24.4133 147.077 24.0933 146.81 23.88C146.063 23.5067 144.837 23.24 143.13 23.08C141.423 22.92 139.583 22.84 137.61 22.84C135.69 22.7867 133.823 22.7867 132.01 22.84C130.25 22.8933 128.943 22.92 128.09 22.92C127.023 24.2 125.903 25.6133 124.73 27.16C123.61 28.6533 121.983 30.6 119.85 33C118.357 34.6 116.863 36.2 115.37 37.8C113.877 39.3467 112.25 40.76 110.49 42.04C110.17 43.2133 109.85 44.4933 109.53 45.88C109.157 47.2667 108.89 48.6533 108.73 50.04C108.623 51.5867 108.65 53.1067 108.81 54.6C108.917 56.04 109.45 57.1333 110.41 57.88C111.53 58.04 112.597 57.7733 113.61 57.08C114.623 56.3867 115.45 55.7467 116.09 55.16C117.53 54.04 118.97 52.84 120.41 51.56C121.85 50.2267 123.263 48.8933 124.65 47.56C126.037 46.1733 127.343 44.8133 128.57 43.48C129.85 42.0933 130.997 40.7867 132.01 39.56C132.223 39.2933 132.41 39.0267 132.57 38.76C132.73 38.44 132.997 38.3333 133.37 38.44C133.637 38.8133 133.61 39.1333 133.29 39.4C133.023 39.6667 132.81 39.9067 132.65 40.12C132.063 40.8667 131.45 41.6133 130.81 42.36C130.17 43.1067 129.53 43.8267 128.89 44.52C127.983 45.48 127.103 46.44 126.25 47.4C125.397 48.3067 124.49 49.1867 123.53 50.04C122.623 51 121.69 51.9067 120.73 52.76C119.77 53.6133 118.783 54.4667 117.77 55.32C117.343 55.5867 116.863 55.96 116.33 56.44C115.85 56.8667 115.317 57.32 114.73 57.8C114.197 58.2267 113.583 58.6 112.89 58.92C112.25 59.1867 111.53 59.2667 110.73 59.16C110.25 59.1067 109.85 58.9733 109.53 58.76C109.21 58.4933 108.917 58.2 108.65 57.88C108.01 56.92 107.61 55.7733 107.45 54.44C107.29 53.0533 107.263 51.6667 107.37 50.28C107.477 48.84 107.69 47.4533 108.01 46.12C108.277 44.7333 108.57 43.5067 108.89 42.44C108.783 42.1733 108.677 41.9867 108.57 41.88C108.463 41.72 108.437 41.5067 108.49 41.24C108.597 40.9733 108.73 40.8133 108.89 40.76C108.997 40.7067 109.183 40.6533 109.45 40.6C110.41 37.4533 111.53 34.52 112.81 31.8C114.143 29.0267 115.583 26.36 117.13 23.8C113.93 24.0667 110.89 24.44 108.01 24.92C105.13 25.4 102.063 25.72 98.81 25.88C98.2767 25.7733 97.8233 25.6133 97.45 25.4C97.0233 25.1867 96.81 24.8133 96.81 24.28C96.81 23.9067 96.97 23.64 97.29 23.48C97.61 23.2667 97.9833 23.1333 98.41 23.08C98.8367 23.0267 99.29 23.0267 99.77 23.08C100.197 23.1333 100.57 23.2133 100.89 23.32C101.05 23.48 101.077 23.6667 100.97 23.88C100.863 24.0933 100.81 24.2267 100.81 24.28C103.583 24.12 106.383 23.88 109.21 23.56C112.037 23.1867 114.89 22.8933 117.77 22.68C119.103 20.8133 120.57 18.8667 122.17 16.84C123.77 14.8133 125.583 13.0533 127.61 11.56C128.25 11.1333 128.97 10.68 129.77 10.2C130.57 9.66666 131.423 9.4 132.33 9.4C133.77 9.4 134.41 10.2 134.25 11.8C134.143 12.76 133.85 13.6933 133.37 14.6C132.89 15.5067 132.41 16.36 131.93 17.16C131.397 18.0133 130.863 18.8133 130.33 19.56C129.85 20.3067 129.37 21.0267 128.89 21.72ZM128.17 12.68C126.463 14.0133 124.863 15.56 123.37 17.32C121.93 19.0267 120.677 20.7333 119.61 22.44C120.89 22.3333 122.17 22.2533 123.45 22.2C124.783 22.0933 126.117 21.9867 127.45 21.88C128.25 20.76 129.05 19.6133 129.85 18.44C130.703 17.2133 131.477 15.96 132.17 14.68C132.437 14.0933 132.703 13.48 132.97 12.84C133.237 12.1467 133.29 11.4267 133.13 10.68C132.223 10.4667 131.317 10.6267 130.41 11.16C129.557 11.6933 128.81 12.2 128.17 12.68ZM118.89 23.56C117.343 26.0667 115.903 28.68 114.57 31.4C113.29 34.12 112.143 37 111.13 40.04C113.903 37.5333 116.57 34.84 119.13 31.96C121.69 29.08 124.143 26.12 126.49 23.08C126.49 23.0267 126.463 23 126.41 23C125.183 23.1067 123.93 23.2133 122.65 23.32C121.37 23.3733 120.117 23.4533 118.89 23.56ZM187.011 5.88C189.891 5.50666 192.664 5.56 195.331 6.04C198.051 6.46666 200.291 7.21333 202.051 8.28C202.957 8.86666 203.811 9.50666 204.611 10.2C205.464 10.84 206.184 11.6133 206.771 12.52C207.357 13.3733 207.837 14.36 208.211 15.48C208.584 16.6 208.771 17.88 208.771 19.32C208.824 20.8667 208.637 22.3867 208.211 23.88C207.784 25.3733 207.277 26.7333 206.691 27.96C204.984 31.5867 202.797 34.84 200.131 37.72C197.464 40.5467 194.744 43.1867 191.971 45.64C189.997 47.24 187.971 48.84 185.891 50.44C183.864 51.9867 181.757 53.4533 179.571 54.84C177.384 56.2267 175.064 57.5067 172.611 58.68C170.211 59.8533 167.651 60.8667 164.931 61.72C164.024 64.3333 163.197 66.9733 162.451 69.64C161.757 72.3067 161.011 75 160.211 77.72C160.691 77.88 160.931 78.1467 160.931 78.52C160.984 78.8933 160.877 79.2667 160.611 79.64C160.397 80.0667 160.104 80.44 159.731 80.76C159.357 81.08 159.037 81.2667 158.771 81.32C158.237 81.2133 157.944 80.92 157.891 80.44C157.891 80.0133 157.944 79.6133 158.051 79.24C158.317 78.0133 158.664 76.76 159.091 75.48C159.517 74.2533 159.891 73.08 160.211 71.96C160.637 70.2533 161.091 68.5733 161.571 66.92C162.051 65.32 162.531 63.72 163.011 62.12C161.624 62.3867 160.317 62.3333 159.091 61.96C157.917 61.5333 157.171 60.7867 156.851 59.72C156.584 58.5467 156.557 57.4533 156.771 56.44C157.037 55.4267 157.411 54.4933 157.891 53.64C158.371 52.7867 158.931 52.0133 159.571 51.32C160.211 50.5733 160.824 49.9067 161.411 49.32C162.584 48.2533 163.837 47.2933 165.171 46.44C166.504 45.5867 167.864 44.76 169.251 43.96C171.651 37.7733 174.051 31.6667 176.451 25.64C178.904 19.6133 181.411 13.6133 183.971 7.64C181.571 8.12 179.277 8.76 177.091 9.56C174.957 10.3067 172.931 11.1867 171.011 12.2C169.091 13.2133 167.224 14.3067 165.411 15.48C163.651 16.6533 161.917 17.8533 160.211 19.08C160.371 19.1867 160.531 19.24 160.691 19.24C160.851 19.24 160.931 19.3467 160.931 19.56C160.824 19.9333 160.611 20.1733 160.291 20.28C160.024 20.3867 159.784 20.5467 159.571 20.76C159.357 20.8667 159.171 21.0267 159.011 21.24C158.904 21.4533 158.744 21.6133 158.531 21.72C158.371 21.88 158.157 22.04 157.891 22.2C157.677 22.3067 157.464 22.44 157.251 22.6C156.664 22.9733 156.051 23.4 155.411 23.88C154.771 24.36 154.077 24.7333 153.331 25C152.904 24.84 152.637 24.6533 152.531 24.44C152.477 24.2267 152.504 23.9867 152.611 23.72C152.771 23.4533 152.957 23.1867 153.171 22.92C153.384 22.6533 153.597 22.44 153.811 22.28C154.557 21.5333 155.384 20.7867 156.291 20.04C157.251 19.2933 158.104 18.6267 158.851 18.04C162.371 15.32 166.211 12.9467 170.371 10.92C174.531 8.84 179.224 7.29333 184.451 6.28C184.664 6.01333 184.851 5.66666 185.011 5.24C185.171 4.76 185.331 4.30666 185.491 3.88C185.651 3.45333 185.837 3.08 186.051 2.76C186.264 2.38666 186.557 2.14666 186.931 2.04C187.091 1.93333 187.277 1.96 187.491 2.12C187.704 2.22666 187.864 2.38666 187.971 2.6C188.131 3.13333 188.077 3.74666 187.811 4.44C187.544 5.13333 187.277 5.61333 187.011 5.88ZM186.131 5.96H186.611C186.504 5.8 186.397 5.72 186.291 5.72C186.291 5.77333 186.237 5.85333 186.131 5.96ZM183.811 50.52C186.584 48.5467 189.197 46.44 191.651 44.2C194.104 41.96 196.451 39.56 198.691 37C199.651 35.9333 200.611 34.76 201.571 33.48C202.531 32.1467 203.411 30.7867 204.211 29.4C205.011 27.96 205.677 26.52 206.211 25.08C206.744 23.5867 207.064 22.12 207.171 20.68C207.384 17.3733 206.664 14.7067 205.011 12.68C203.357 10.6 201.251 9.10666 198.691 8.2C197.837 7.88 196.851 7.61333 195.731 7.4C194.664 7.18666 193.544 7.05333 192.371 7C191.197 6.89333 189.997 6.86666 188.771 6.92C187.597 6.97333 186.504 7.10666 185.491 7.32C182.771 13.0267 180.211 18.8933 177.811 24.92C175.411 30.9467 173.144 37.0267 171.011 43.16C171.757 42.7333 172.531 42.36 173.331 42.04C174.131 41.72 174.904 41.4 175.651 41.08C175.864 41.0267 176.157 40.8933 176.531 40.68C176.904 40.4667 177.144 40.5733 177.251 41C177.304 41.2667 177.144 41.5067 176.771 41.72C176.397 41.88 176.077 42.0133 175.811 42.12C174.851 42.5467 173.891 42.9467 172.931 43.32C172.024 43.6933 171.197 44.0933 170.451 44.52C169.544 47.1333 168.637 49.7733 167.731 52.44C166.877 55.0533 166.077 57.72 165.331 60.44C168.904 59.3733 172.184 57.96 175.171 56.2C178.157 54.3867 181.037 52.4933 183.811 50.52ZM168.611 45.48L168.451 45.64C167.331 46.2267 166.157 46.9467 164.931 47.8C163.704 48.6533 162.557 49.5867 161.491 50.6C160.477 51.6133 159.597 52.7067 158.851 53.88C158.157 55.0533 157.757 56.28 157.651 57.56C157.544 59.2667 158.051 60.3333 159.171 60.76C160.344 61.1867 161.704 61.2667 163.251 61C164.157 58.3867 165.064 55.8 165.971 53.24C166.877 50.6267 167.757 48.04 168.611 45.48ZM211.702 39.08C211.809 39.08 211.915 39.0533 212.022 39C212.182 38.8933 212.369 38.8667 212.582 38.92C212.795 39.1333 212.929 39.4 212.982 39.72C213.035 40.04 213.035 40.3867 212.982 40.76C212.982 41.1333 212.955 41.5333 212.902 41.96C212.849 42.3867 212.822 42.7867 212.822 43.16C212.822 44.0667 213.089 44.68 213.622 45C214.849 45.1067 215.942 44.9467 216.902 44.52C217.862 44.04 218.769 43.56 219.622 43.08C220.422 42.6 221.062 42.1733 221.542 41.8C222.075 41.4267 222.475 41.1333 222.742 40.92C223.009 40.6533 223.222 40.4933 223.382 40.44C223.542 40.3867 223.702 40.4667 223.862 40.68C223.862 40.9467 223.755 41.16 223.542 41.32C223.382 41.48 223.222 41.64 223.062 41.8C222.902 41.9067 222.715 42.04 222.502 42.2C222.342 42.36 222.155 42.4933 221.942 42.6C221.622 42.8667 221.249 43.1333 220.822 43.4C220.449 43.6133 220.075 43.8533 219.702 44.12C219.222 44.3333 218.715 44.5733 218.182 44.84C217.702 45.0533 217.195 45.2667 216.662 45.48C216.129 45.6933 215.569 45.8533 214.982 45.96C214.395 46.0133 213.755 45.9867 213.062 45.88C212.262 45.5067 211.835 44.7333 211.782 43.56C211.729 42.3333 211.809 41.2133 212.022 40.2C211.755 40.36 211.462 40.6267 211.142 41C210.875 41.32 210.609 41.64 210.342 41.96C209.915 42.28 209.515 42.6533 209.142 43.08C208.769 43.5067 208.342 43.9333 207.862 44.36C207.435 44.7867 206.982 45.16 206.502 45.48C206.022 45.8 205.489 45.96 204.902 45.96C204.689 45.8533 204.422 45.64 204.102 45.32C203.942 44.2 204.129 43.1867 204.662 42.28C205.142 41.32 205.675 40.4133 206.262 39.56C206.795 38.8667 207.355 38.2267 207.942 37.64C208.529 37 209.195 36.5467 209.942 36.28C210.475 36.0667 211.009 36.0667 211.542 36.28C211.649 36.3867 211.729 36.4933 211.782 36.6C211.835 36.7067 211.915 36.8133 212.022 36.92C212.129 37.3467 212.129 37.7467 212.022 38.12C211.915 38.44 211.809 38.76 211.702 39.08ZM205.702 44.2C206.289 43.9333 206.795 43.6133 207.222 43.24C207.649 42.8667 208.075 42.4667 208.502 42.04C208.395 41.8267 208.342 41.64 208.342 41.48C208.662 40.8933 209.009 40.3333 209.382 39.8C209.809 39.2667 210.075 38.6267 210.182 37.88C209.222 38.7333 208.342 39.6667 207.542 40.68C206.742 41.64 206.129 42.8133 205.702 44.2ZM241.937 21.72C242.79 21.6667 244.15 21.6133 246.017 21.56C247.884 21.4533 249.83 21.4267 251.857 21.48C253.884 21.5333 255.777 21.6667 257.537 21.88C259.297 22.04 260.524 22.3867 261.217 22.92C261.27 23.0267 261.377 23.1867 261.537 23.4C261.75 23.6133 261.91 23.8533 262.017 24.12C262.177 24.3867 262.23 24.6533 262.177 24.92C262.177 25.1333 262.017 25.2667 261.697 25.32C261.324 25.4267 260.977 25.2667 260.657 24.84C260.39 24.4133 260.124 24.0933 259.857 23.88C259.11 23.5067 257.884 23.24 256.177 23.08C254.47 22.92 252.63 22.84 250.657 22.84C248.737 22.7867 246.87 22.7867 245.057 22.84C243.297 22.8933 241.99 22.92 241.137 22.92C240.07 24.2 238.95 25.6133 237.777 27.16C236.657 28.6533 235.03 30.6 232.897 33C231.404 34.6 229.91 36.2 228.417 37.8C226.924 39.3467 225.297 40.76 223.537 42.04C223.217 43.2133 222.897 44.4933 222.577 45.88C222.204 47.2667 221.937 48.6533 221.777 50.04C221.67 51.5867 221.697 53.1067 221.857 54.6C221.964 56.04 222.497 57.1333 223.457 57.88C224.577 58.04 225.644 57.7733 226.657 57.08C227.67 56.3867 228.497 55.7467 229.137 55.16C230.577 54.04 232.017 52.84 233.457 51.56C234.897 50.2267 236.31 48.8933 237.697 47.56C239.084 46.1733 240.39 44.8133 241.617 43.48C242.897 42.0933 244.044 40.7867 245.057 39.56C245.27 39.2933 245.457 39.0267 245.617 38.76C245.777 38.44 246.044 38.3333 246.417 38.44C246.684 38.8133 246.657 39.1333 246.337 39.4C246.07 39.6667 245.857 39.9067 245.697 40.12C245.11 40.8667 244.497 41.6133 243.857 42.36C243.217 43.1067 242.577 43.8267 241.937 44.52C241.03 45.48 240.15 46.44 239.297 47.4C238.444 48.3067 237.537 49.1867 236.577 50.04C235.67 51 234.737 51.9067 233.777 52.76C232.817 53.6133 231.83 54.4667 230.817 55.32C230.39 55.5867 229.91 55.96 229.377 56.44C228.897 56.8667 228.364 57.32 227.777 57.8C227.244 58.2267 226.63 58.6 225.937 58.92C225.297 59.1867 224.577 59.2667 223.777 59.16C223.297 59.1067 222.897 58.9733 222.577 58.76C222.257 58.4933 221.964 58.2 221.697 57.88C221.057 56.92 220.657 55.7733 220.497 54.44C220.337 53.0533 220.31 51.6667 220.417 50.28C220.524 48.84 220.737 47.4533 221.057 46.12C221.324 44.7333 221.617 43.5067 221.937 42.44C221.83 42.1733 221.724 41.9867 221.617 41.88C221.51 41.72 221.484 41.5067 221.537 41.24C221.644 40.9733 221.777 40.8133 221.937 40.76C222.044 40.7067 222.23 40.6533 222.497 40.6C223.457 37.4533 224.577 34.52 225.857 31.8C227.19 29.0267 228.63 26.36 230.177 23.8C226.977 24.0667 223.937 24.44 221.057 24.92C218.177 25.4 215.11 25.72 211.857 25.88C211.324 25.7733 210.87 25.6133 210.497 25.4C210.07 25.1867 209.857 24.8133 209.857 24.28C209.857 23.9067 210.017 23.64 210.337 23.48C210.657 23.2667 211.03 23.1333 211.457 23.08C211.884 23.0267 212.337 23.0267 212.817 23.08C213.244 23.1333 213.617 23.2133 213.937 23.32C214.097 23.48 214.124 23.6667 214.017 23.88C213.91 24.0933 213.857 24.2267 213.857 24.28C216.63 24.12 219.43 23.88 222.257 23.56C225.084 23.1867 227.937 22.8933 230.817 22.68C232.15 20.8133 233.617 18.8667 235.217 16.84C236.817 14.8133 238.63 13.0533 240.657 11.56C241.297 11.1333 242.017 10.68 242.817 10.2C243.617 9.66666 244.47 9.4 245.377 9.4C246.817 9.4 247.457 10.2 247.297 11.8C247.19 12.76 246.897 13.6933 246.417 14.6C245.937 15.5067 245.457 16.36 244.977 17.16C244.444 18.0133 243.91 18.8133 243.377 19.56C242.897 20.3067 242.417 21.0267 241.937 21.72ZM241.217 12.68C239.51 14.0133 237.91 15.56 236.417 17.32C234.977 19.0267 233.724 20.7333 232.657 22.44C233.937 22.3333 235.217 22.2533 236.497 22.2C237.83 22.0933 239.164 21.9867 240.497 21.88C241.297 20.76 242.097 19.6133 242.897 18.44C243.75 17.2133 244.524 15.96 245.217 14.68C245.484 14.0933 245.75 13.48 246.017 12.84C246.284 12.1467 246.337 11.4267 246.177 10.68C245.27 10.4667 244.364 10.6267 243.457 11.16C242.604 11.6933 241.857 12.2 241.217 12.68ZM231.937 23.56C230.39 26.0667 228.95 28.68 227.617 31.4C226.337 34.12 225.19 37 224.177 40.04C226.95 37.5333 229.617 34.84 232.177 31.96C234.737 29.08 237.19 26.12 239.537 23.08C239.537 23.0267 239.51 23 239.457 23C238.23 23.1067 236.977 23.2133 235.697 23.32C234.417 23.3733 233.164 23.4533 231.937 23.56ZM265.753 43.08C265.273 43.3467 264.606 43.7733 263.753 44.36C262.953 44.8933 262.019 45.5067 260.953 46.2C259.886 46.84 258.713 47.48 257.433 48.12C256.153 48.76 254.846 49.2933 253.513 49.72C252.926 49.88 252.286 50.04 251.593 50.2C250.899 50.36 250.206 50.44 249.513 50.44C248.819 50.44 248.153 50.3867 247.513 50.28C246.873 50.12 246.313 49.8267 245.833 49.4C245.353 49.1333 244.979 48.7067 244.713 48.12C244.446 47.5333 244.286 46.8933 244.232 46.2C244.126 45.5067 244.099 44.8133 244.152 44.12C244.206 43.3733 244.366 42.7067 244.633 42.12C244.312 41.96 244.019 41.8 243.752 41.64C243.432 41.48 243.326 41.1067 243.432 40.52C243.592 40.2 243.859 40.04 244.232 40.04C244.553 39.9867 244.926 40.0133 245.353 40.12C245.673 39.5867 245.966 39.0533 246.233 38.52C246.553 37.9333 246.926 37.4267 247.353 37C247.459 36.84 247.646 36.6267 247.913 36.36C248.233 36.04 248.553 35.7733 248.873 35.56C249.193 35.2933 249.513 35.1333 249.833 35.08C250.153 35.0267 250.419 35.16 250.633 35.48C250.846 35.8 250.899 36.1467 250.793 36.52C250.739 36.84 250.606 37.1867 250.393 37.56C250.179 37.88 249.939 38.2 249.673 38.52C249.406 38.7867 249.193 39 249.033 39.16C248.126 40.2267 247.086 41.08 245.913 41.72C245.646 42.5733 245.433 43.5867 245.273 44.76C245.166 45.88 245.326 46.8133 245.753 47.56C246.286 48.4133 247.059 48.9467 248.073 49.16C249.086 49.3733 250.153 49.3733 251.273 49.16C252.499 48.9467 253.753 48.5733 255.033 48.04C256.366 47.5067 257.673 46.8933 258.953 46.2C260.286 45.4533 261.539 44.7067 262.713 43.96C263.939 43.16 265.059 42.3867 266.073 41.64C267.033 36.84 268.339 32.3067 269.993 28.04C271.699 23.72 273.593 19.9067 275.673 16.6C277.806 13.24 280.019 10.4933 282.313 8.36C284.606 6.22667 286.819 4.94666 288.953 4.52C289.753 4.41333 290.393 4.49333 290.873 4.76C291.246 4.92 291.539 5.13333 291.753 5.39999C291.966 5.66666 292.179 5.98667 292.393 6.36C292.713 7.48 292.766 8.57333 292.553 9.64C292.339 10.7067 292.046 11.72 291.673 12.68C290.713 15.2933 289.299 17.96 287.433 20.68C285.619 23.3467 283.593 25.96 281.353 28.52C279.166 31.0267 276.846 33.4 274.393 35.64C271.993 37.88 269.726 39.88 267.593 41.64C267.273 43.4 266.953 45.2933 266.633 47.32C266.313 49.2933 266.019 51.3467 265.753 53.48C265.539 55.56 265.379 57.6933 265.273 59.88C265.219 62.0667 265.299 64.2533 265.513 66.44C265.566 67.0267 265.646 67.6667 265.753 68.36C265.859 69.0533 265.993 69.6933 266.153 70.28C266.366 70.92 266.633 71.4533 266.953 71.88C267.273 72.36 267.673 72.68 268.153 72.84C268.473 72.9467 268.846 72.9467 269.273 72.84C269.699 72.7867 269.966 72.9733 270.073 73.4C270.019 73.72 269.859 73.9333 269.593 74.04C269.326 74.1467 269.006 74.1733 268.633 74.12C268.313 74.12 267.966 74.0667 267.593 73.96C267.273 73.8533 267.033 73.7467 266.873 73.64C266.553 73.32 266.286 73.08 266.073 72.92C264.953 71.2133 264.286 69.0267 264.073 66.36C263.859 63.6933 263.833 60.9733 263.993 58.2C264.099 55.48 264.313 52.8667 264.633 50.36C264.953 47.8 265.326 45.3733 265.753 43.08ZM288.073 18.04C288.926 16.4933 289.726 14.9733 290.473 13.48C291.273 11.9333 291.699 9.98666 291.753 7.64C291.646 7 291.433 6.49333 291.113 6.12C290.793 5.69333 290.259 5.48 289.512 5.48C288.606 5.48 287.699 5.74667 286.793 6.28C285.939 6.81333 285.166 7.37333 284.473 7.96C283.833 8.49333 283.113 9.18667 282.313 10.04C281.513 10.84 280.713 11.7733 279.913 12.84C279.113 13.8533 278.313 14.9733 277.513 16.2C276.766 17.3733 276.073 18.5733 275.433 19.8C273.779 22.84 272.339 26.04 271.113 29.4C269.886 32.76 268.819 36.3333 267.913 40.12C270.046 38.52 272.126 36.76 274.153 34.84C276.233 32.8667 278.153 30.92 279.913 29C281.673 27.0267 283.246 25.1067 284.633 23.24C286.019 21.32 287.166 19.5867 288.073 18.04ZM247.913 38.2C248.179 37.9867 248.419 37.7467 248.633 37.48C248.846 37.2133 249.059 36.9467 249.273 36.68C249.006 36.8933 248.766 37.1333 248.553 37.4C248.339 37.6667 248.126 37.9333 247.913 38.2Z" fill="#213B74"/>
</svg>
