<svg width="63" height="56" viewBox="0 0 63 56" fill="none" xmlns="http://www.w3.org/2000/svg">
<path d="M31.5183 51.7106C31.5183 49.1613 31.3574 46.6556 30.2133 44.2935C29.8999 43.6071 29.4309 43.0032 28.8434 42.5297C28.2559 42.0563 27.5661 41.7263 26.8288 41.5659C19.6423 39.5953 13.1648 36.4022 8.39703 30.4076C6.56657 28.1031 5.53315 25.2669 5.45195 22.325C5.40844 21.3549 5.52154 20.7502 6.80485 21.4245C10.8331 23.543 15.1398 25.0438 19.3682 26.7056C21.2693 27.4495 22.9267 28.6284 24.6842 29.6289C27.6452 31.2225 29.8654 33.9111 30.8702 37.12C32.7528 41.9786 33.6075 47.1748 33.3802 52.3805C32.6494 52.4849 31.8054 52.8547 31.5183 51.7106Z" fill="white"/>
<path d="M31.521 51.7089C31.9908 52.3744 32.8783 51.8568 33.3959 52.3788C34.266 55.9285 34.1529 56.2026 30.4944 55.9155C23.4045 55.4476 16.6857 52.5783 11.4448 47.7806C8.04297 44.6963 5.2197 41.1727 3.47962 36.866C3.31431 36.2091 3.70582 35.8567 4.23655 35.6871C4.84992 35.487 5.21969 35.8915 5.50246 36.3831C5.71824 36.8101 6.04223 37.1731 6.4421 37.4359C8.88256 41.1335 11.7624 44.3962 15.5253 46.8323C20.08 49.7861 25.0958 51.326 30.4465 51.996C30.6357 52.0227 30.8284 52.0111 31.013 51.9618C31.1976 51.9125 31.3704 51.8264 31.521 51.7089Z" fill="white"/>
<path d="M23.7379 27.3001C21.9978 25.5992 20.2578 23.9157 18.5177 22.193C17.5171 21.1838 16.3165 19.9744 16.9647 18.5388C17.6128 17.1033 19.2703 17.0076 20.7537 16.8858C24.1033 16.6204 26.0957 18.5954 27.714 21.1055C29.8891 24.5073 30.7809 28.3442 31.2855 32.2942C31.3299 32.498 31.3925 32.6975 31.4726 32.8901C31.938 33.5122 31.6683 34.23 31.6857 34.8956C31.6857 35.3306 31.9989 35.9875 31.3508 36.118C30.8244 36.2224 30.5547 35.6395 30.3285 35.2175C28.6493 32.1463 26.0914 29.8102 23.7379 27.3001Z" fill="white"/>
<path d="M46.5552 23.1106C48.8129 20.6919 51.4317 18.6647 53.8591 16.4243C54.6857 15.6674 55.2904 15.7196 55.7341 16.9159C57.2654 21.0355 56.5432 24.855 54.3551 28.5179C53.92 28.457 53.7808 28.7658 53.6416 29.0486C52.9674 30.4624 51.8363 30.6799 50.5965 30.0317C48.7303 29.0617 46.7292 28.4309 44.8455 27.513C43.8058 27.004 43.6797 26.5081 44.4975 25.5684C45.1892 24.7724 46.0244 24.0633 46.5552 23.1106Z" fill="white"/>
<path d="M46.5628 23.1108C46.267 24.6204 44.8966 25.4077 44.1354 26.765C46.4149 27.7525 48.7031 28.74 50.9826 29.7362C51.9831 30.1712 52.7618 30.0668 53.3621 29.0271C53.5057 28.7748 53.584 27.7699 54.3627 28.5225C52.4747 31.5676 50.3561 34.3822 46.8542 35.7656C45.8492 35.9257 44.8881 36.2915 44.031 36.8401C43.1131 37.3795 42.3561 37.3055 41.7993 36.405C41.3295 35.6655 40.6334 35.3479 39.907 34.9738C38.6889 34.3387 37.5187 33.6035 37.8493 31.9026C39.4632 29.2925 41.7645 27.3262 44.0092 25.3077C44.8618 24.5769 45.4839 23.585 46.5628 23.1108Z" fill="white"/>
<path d="M53.0574 47.5403C48.4723 52.2124 42.7082 54.3788 36.4135 55.5185C35.0736 55.7622 34.9605 55.214 34.9083 54.2135C34.817 52.382 34.6256 50.5593 34.5473 48.7279C34.4342 46.0438 33.8556 43.3858 34.1862 40.6844C34.5647 40.0188 34.9779 39.2575 35.8871 39.5881C36.6354 39.8622 36.7963 40.6626 36.6484 41.3586C36.5005 42.0547 36.6484 42.4375 37.3531 42.6637C37.6533 42.7594 37.5663 43.0987 37.4402 43.3554C35.8088 45.748 36.6484 48.3668 36.7963 50.9073C36.8442 51.7208 37.5837 51.2031 37.9622 51.1074C42.2923 50.0905 46.3239 48.0732 49.7338 45.2173C50.4864 44.9258 50.6039 45.2173 50.3646 45.8872C50.2123 46.2874 49.5816 46.7311 50.1862 47.1096C50.6735 47.4141 51.2738 47.6969 51.9568 47.2227C52.457 46.8747 52.531 46.9791 53.0574 47.5403Z" fill="white"/>
<path d="M35.6271 19.2037C37.0235 16.5066 40.5603 14.8927 43.4575 15.5974C44.3058 15.8062 44.3754 16.4674 44.3754 17.0939C44.3754 19.4125 42.9485 21.0917 41.7 22.8405C41.0344 22.8405 40.83 23.3538 40.5994 23.8541C39.899 25.2461 38.9072 25.5202 37.5978 24.6284C36.793 24.0803 36.2231 23.5452 35.0398 24.089C34.122 24.524 34.1698 23.4626 34.383 22.8535C34.8049 21.6442 35.4357 20.5001 35.6271 19.2037Z" fill="white"/>
<path d="M35.6271 19.2031C36.1535 20.3559 35.3748 21.2738 35.0573 22.2483C34.8876 22.779 34.396 23.2227 34.6657 24.084C35.7315 22.692 36.545 23.0574 37.5499 24.084C38.7114 25.2543 39.6293 24.9541 40.3776 23.5229C40.6212 23.0487 40.7473 22.096 41.6826 22.8312C38.8637 27.5903 35.1573 31.8927 33.9915 37.7393C33.3961 36.3842 33.0994 34.9169 33.1214 33.437C32.9735 29.5435 32.8126 25.6458 34.1872 21.8872C34.4773 20.9029 34.9675 19.9891 35.6271 19.2031Z" fill="white"/>
<path d="M37.466 43.3522C37.4138 42.5997 36.8917 42.9564 36.5133 42.9477C35.9521 42.9477 35.6128 42.5779 35.9738 42.1255C36.6046 41.3338 36.522 40.4637 35.926 39.9504C35.2169 39.3457 34.8906 40.629 34.212 40.6769C34.212 37.2576 35.8172 34.4909 37.8705 31.9199C37.9983 32.6312 38.3324 33.2893 38.8313 33.8122C39.3302 34.3351 39.9719 34.6997 40.6764 34.8607C40.8809 34.9172 41.1767 34.9738 41.2506 35.1217C42.6079 37.9232 44.4741 36.0265 46.162 35.6524C46.4404 35.5871 46.6666 35.5132 46.8754 35.7611C44.5263 37.2446 41.9728 38.4061 39.9151 40.3941C38.9986 41.2928 38.1778 42.2841 37.466 43.3522Z" fill="white"/>
<path d="M6.44248 37.4373C6.22239 37.4377 6.00645 37.3774 5.81841 37.2631C5.63037 37.1487 5.47751 36.9847 5.37667 36.7891C4.66324 35.4405 4.07162 35.7972 3.47999 36.8674C1.96234 33.9931 1.04333 30.841 0.778522 27.6015C0.343502 22.9163 0.739362 18.3138 2.82311 13.9853C3.34078 13.4024 3.83236 13.4285 4.29783 14.0506C4.22388 16.2735 3.39734 18.3529 3.11458 20.5759C2.4229 25.9614 3.45824 30.9859 5.7247 35.8364C5.95961 36.3541 6.19887 36.8978 6.44248 37.4373Z" fill="white"/>
<path d="M30.5682 21.5189C30.1332 19.6439 30.6422 17.7733 30.5987 15.894C30.5247 13.0099 30.4768 10.1779 29.1413 7.50687C28.5783 6.3997 27.8125 5.40808 26.8836 4.58353C26.1708 4.00489 25.5707 3.30002 25.113 2.50414C24.7737 1.81245 24.317 1.00767 24.9477 0.402989C25.5785 -0.201688 26.5921 -0.0624819 27.3795 0.402989C28.5541 1.08597 29.2283 2.20397 29.7112 3.44813C31.5513 8.11154 32.0386 12.9794 31.8646 17.943C31.5383 18.6477 31.7689 19.396 31.7036 20.1181C31.6384 20.8402 31.4513 21.4319 30.5682 21.5189Z" fill="white"/>
<path d="M53.0493 47.54C52.6664 47.0614 52.3532 47.1789 52.0226 47.6139C51.692 48.0489 51.4223 47.888 50.8785 47.8184C48.7513 47.5443 48.9035 46.9179 50.1303 45.6433C50.4261 45.3344 49.9519 45.2822 49.7257 45.2082C52.6229 42.8809 54.7328 39.9271 56.5033 36.7036C57.3342 37.2474 57.3734 37.3344 56.9383 38.2262C56.5816 38.9048 56.2032 39.553 56.251 40.4013C57.7214 40.1011 58.4479 39.0962 58.922 37.7651C59.0569 37.3822 59.3179 36.895 59.866 37.1386C60.1792 37.2691 59.9878 37.6128 59.94 37.8651C58.619 41.6844 56.2269 45.043 53.0493 47.54Z" fill="white"/>
<path d="M57.6156 10.422C60.6259 15.2072 62.3051 20.3622 62.1659 26.0566C61.8222 27.1007 62.0528 28.1795 62.0223 29.2366C62.0223 29.9239 61.9571 30.5678 61.2132 30.8157C60.4693 31.0637 59.5862 31.5901 58.9076 30.6026C60.0125 24.2948 60.1474 18.0653 57.4677 12.0533C57.3636 11.7497 57.2907 11.4364 57.2502 11.118C57.1153 10.77 57.037 10.4046 57.6156 10.422Z" fill="white"/>
<path d="M58.9041 30.6016C61.0792 31.0105 61.8014 30.4493 61.8579 28.3917C61.8797 27.613 61.5578 26.7647 62.1624 26.0513C62.5031 30.1224 61.7349 34.2098 59.9395 37.8795C59.8481 37.4879 59.5045 36.9311 59.374 37.6663C58.9389 39.8109 57.4294 40.6114 55.611 41.1769C55.8111 39.9328 55.9068 38.6712 56.8117 37.6489C57.0988 37.327 56.9161 36.9268 56.5072 36.7093C57.464 34.7389 58.2654 32.6968 58.9041 30.6016Z" fill="white"/>
<path d="M32.8282 18.8615C32.7586 17.8653 33.5112 17.1997 33.8461 16.3688C34.6596 14.3329 34.8641 12.1839 35.1512 10.0436C35.1871 9.34286 35.3836 8.65971 35.7254 8.0469C36.4519 6.93325 37.5046 7.0855 38.466 7.52922C39.4274 7.97294 39.2273 8.92129 38.8706 9.65212C37.4655 12.5102 36.0038 15.3335 34.5552 18.1655C34.2116 18.8397 33.8374 19.4705 33.472 20.1535C33.2415 20.4885 33.0674 21.0453 32.5411 20.7669C32.1539 20.5581 32.3279 20.0969 32.5063 19.762C32.6846 19.427 32.6803 19.1399 32.8282 18.8615Z" fill="white"/>
<path d="M26.978 14.9621L28.283 16.637C28.4266 16.8023 28.5136 16.9893 28.3222 17.159C27.9872 17.4635 27.7958 17.0241 27.5217 16.985C25.6729 15.4537 24.3678 13.4178 22.68 11.7343C22.0796 11.134 21.7708 10.29 22.7757 9.67664C23.7806 9.06326 24.333 9.64618 24.7507 10.4249C25.1683 11.2036 25.3945 11.9126 25.7121 12.6565C26.1514 13.4048 26.4385 14.2487 26.978 14.9621Z" fill="white"/>
<path d="M4.29433 14.0495C3.80711 13.9842 3.32423 13.6928 2.81961 13.9842C3.68965 11.2393 5.39058 9.02066 7.16981 6.84991C7.43952 6.615 7.67444 6.28438 8.0181 6.21043C8.53143 6.09733 8.67499 6.33659 8.37482 6.79336C7.06976 8.99891 5.68639 11.1436 4.84245 13.5884C4.81993 13.7174 4.75264 13.8344 4.65238 13.9188C4.55213 14.0031 4.42535 14.0494 4.29433 14.0495Z" fill="white"/>
<path d="M57.6139 10.4203L57.2485 11.1163L55.6302 7.85365L55.9956 7.62744C56.6395 8.48443 57.4225 9.24571 57.6139 10.4203Z" fill="white"/>
<path d="M27.5152 16.9862C27.8023 16.934 28.2852 17.3255 28.2765 16.6382C28.5398 16.7989 28.7596 17.0217 28.9166 17.2872C29.0736 17.5527 29.163 17.8526 29.177 18.1608C28.8168 18.1441 28.4688 18.0247 28.1743 17.8165C27.8798 17.6084 27.6511 17.3202 27.5152 16.9862Z" fill="white"/>
<path d="M26.9828 14.9623C26.1649 14.4099 25.8909 13.5572 25.7038 12.6567C26.3605 13.2728 26.8077 14.0791 26.9828 14.9623Z" fill="white"/>
</svg>
