<svg width="33" height="33" viewBox="0 0 33 33" fill="none" xmlns="http://www.w3.org/2000/svg">
<path d="M20.6562 9.72485V20.9249" stroke="#CCCCCC" stroke-linecap="round" stroke-linejoin="round"/>
<path d="M20.6562 27.7249V19.7249" stroke="#CCCCCC" stroke-linecap="round" stroke-linejoin="round"/>
<path d="M20.6562 19.7249L24.7896 21.7249" stroke="#CCCCCC" stroke-linecap="round" stroke-linejoin="round"/>
<path d="M24.7882 27.5916V9.72489C24.7882 9.19156 24.6548 8.79156 24.3882 8.39156C23.4548 7.59156 22.3882 6.92489 21.3215 6.25823C20.9215 5.99156 20.3882 5.72489 19.8548 5.99156L9.58815 11.0582C9.05482 11.4582 8.65482 11.9916 8.52148 12.6582V22.5249" stroke="#CCCCCC" stroke-linecap="round" stroke-linejoin="round"/>
<path d="M8.65625 17.0582L20.6563 13.1915" stroke="#CCCCCC" stroke-linecap="round" stroke-linejoin="round"/>
<path d="M6.12305 27.7249V24.5249C6.12305 23.7249 6.52305 23.0582 7.18971 22.7915L8.52305 22.5249L20.6564 19.7249" stroke="#CCCCCC" stroke-linecap="round" stroke-linejoin="round"/>
<path d="M24.7891 13.1915L27.0557 15.4582C27.4557 15.8582 27.5891 16.2582 27.5891 16.7915V27.4582" stroke="#CCCCCC" stroke-linecap="round" stroke-linejoin="round"/>
<path d="M28.7891 27.7249H4.78906" stroke="#CCCCCC" stroke-linecap="round" stroke-linejoin="round"/>
</svg>
