<svg width="156" height="156" viewBox="0 0 156 156" fill="none" xmlns="http://www.w3.org/2000/svg">
<g filter="url(#filter0_b_402_4)">
<rect width="156" height="156" rx="78" fill="black" fill-opacity="0.5"/>
<path d="M42.1059 133.083L50.2769 125.695L51.8197 126.504L50.381 137.426L48.8764 136.636L50.1598 127.715L43.5084 133.819L42.1059 133.083Z" fill="white"/>
<path d="M33.0569 124.912C33.4197 124.503 34.02 124.476 34.4835 124.887C34.947 125.298 35.0042 125.906 34.6413 126.316C34.2689 126.736 33.6674 126.742 33.2039 126.331C32.7405 125.921 32.6845 125.332 33.0569 124.912ZM39.5295 118.084L40.6181 119.048L35.5572 124.761L34.4685 123.796L39.5295 118.084Z" fill="white"/>
<path d="M31.4471 108.633C32.6987 110.447 32.2258 112.575 30.2467 113.941C28.3861 115.226 26.148 114.898 24.9537 113.168C23.6612 111.296 24.3192 109.004 26.5048 107.811L29.736 112.492C30.9504 111.513 31.2553 110.358 30.5273 109.303C29.9137 108.415 29.0025 108.134 28.0457 108.497L27.2277 107.312C28.8388 106.654 30.4246 107.152 31.4471 108.633ZM25.8707 112.57C26.5333 113.53 27.6706 113.707 28.9338 113.028L26.586 109.627C25.4656 110.488 25.1999 111.598 25.8707 112.57Z" fill="white"/>
<path d="M24.6108 95.506L19.9187 99.1337L25.8415 98.7509L26.3623 100.124L20.0076 104.891L19.502 103.558L24.1528 100.146L18.3429 100.501L17.8322 99.1549L22.4403 95.59L16.6833 96.1255L16.1726 94.7791L24.0951 94.1461L24.6108 95.506Z" fill="white"/>
<path d="M22.1381 71.3837C21.8777 73.528 20 74.8956 17.7557 74.6231C15.5113 74.3506 14.0155 72.5733 14.2758 70.4291C14.5362 68.2848 16.4139 66.9172 18.6582 67.1897C20.9026 67.4622 22.3984 69.2395 22.1381 71.3837ZM20.8658 71.2292C21.0168 69.9856 20.1359 68.8777 18.4777 68.6764C16.8195 68.475 15.7134 69.3416 15.5624 70.5853C15.4114 71.8289 16.2797 72.9208 17.9379 73.1221C19.5961 73.3235 20.7148 72.4729 20.8658 71.2292Z" fill="white"/>
<path d="M20.5406 58.3914L24.5664 59.9182L24.0506 61.2781L16.9146 58.5717L17.3946 57.306L18.5794 57.7554C17.9689 56.9694 17.7502 55.9624 18.1229 54.9795C18.6795 53.5119 19.9897 52.9 21.6997 53.5485L26.3179 55.3L25.8021 56.6599L21.6417 55.082C20.4164 54.6173 19.5255 54.8954 19.1425 55.9052C18.7902 56.8343 19.2749 57.9114 20.5406 58.3914Z" fill="white"/>
<path d="M36.9306 39.5294L35.8419 40.4938L30.781 34.7812L31.7942 33.8836L32.6345 34.8321C32.44 33.8308 32.7011 32.8877 33.4879 32.1907C34.3287 31.4458 35.3466 31.3136 36.2737 31.8389C36.0232 30.7527 36.2796 29.7175 37.1527 28.944C38.3275 27.9032 39.76 28 40.9632 29.3581L44.2385 33.0552L43.1498 34.0196L40.1801 30.6675C39.3398 29.719 38.4229 29.5309 37.6253 30.2375C36.8815 30.8964 36.8318 32.0563 37.6816 33.0156L40.5845 36.2923L39.4959 37.2567L36.5262 33.9046C35.6859 32.9561 34.7689 32.768 33.9713 33.4746C33.2168 34.143 33.1778 35.2934 34.0277 36.2527L36.9306 39.5294Z" fill="white"/>
<path d="M54.1907 27.9045L53.642 26.859C53.616 27.8321 53.0846 28.6477 52.09 29.1697C50.6875 29.9058 49.3478 29.5843 48.6987 28.3475C48.0027 27.0215 48.6997 25.7775 50.7143 24.7201C51.1095 24.5127 51.435 24.3581 52.0167 24.1341L51.7557 23.6369C51.2471 22.6678 50.4366 22.3939 49.5441 22.8624C48.6005 23.3576 48.3212 24.2197 48.7781 25.1834L47.6051 25.799C46.8725 24.2483 47.4276 22.6721 49.0087 21.8423C50.679 20.9657 52.1433 21.4006 52.9865 23.0072L55.2618 27.3424L54.1907 27.9045ZM49.9027 27.6668C50.2708 28.3681 51.0344 28.5528 51.8632 28.1178C52.947 27.5489 53.2681 26.5185 52.7261 25.4857L52.4383 24.9374C51.9076 25.1347 51.5439 25.3093 51.2124 25.4833C49.9245 26.1592 49.4878 26.8763 49.9027 27.6668Z" fill="white"/>
<path d="M67.7375 18.8283C68.2889 21.0654 67.3989 22.9903 65.4135 23.4796C64.4068 23.7277 63.4299 23.4346 62.678 22.6707L63.6532 26.6275L62.2411 26.9755L59.7497 16.8668L61.064 16.5429L61.3982 17.8991C61.6952 16.8174 62.4696 16.0482 63.5182 15.7897C65.4896 15.3038 67.1862 16.5913 67.7375 18.8283ZM66.2695 19.1901C65.8594 17.5263 64.7477 16.8066 63.5313 17.1064C62.3568 17.3959 61.6649 18.5601 62.075 20.2239C62.4782 21.8598 63.6213 22.5865 64.8097 22.2936C66.0261 21.9938 66.6795 20.854 66.2695 19.1901Z" fill="white"/>
<path d="M113.437 22.3702L105.266 29.7584L103.723 28.9487L105.162 18.0271L106.667 18.8168L105.383 27.7382L112.035 21.6341L113.437 22.3702Z" fill="white"/>
<path d="M122.486 30.541C122.123 30.9506 121.523 30.9767 121.059 30.5661C120.596 30.1555 120.539 29.5469 120.902 29.1373C121.274 28.7169 121.876 28.7112 122.339 29.1218C122.803 29.5324 122.859 30.1206 122.486 30.541ZM116.014 37.3693L114.925 36.4049L119.986 30.6922L121.074 31.6567L116.014 37.3693Z" fill="white"/>
<path d="M124.096 46.8197C122.844 45.0065 123.317 42.8778 125.296 41.5117C127.157 40.2274 129.395 40.5547 130.589 42.285C131.882 44.1574 131.224 46.4488 129.038 47.6425L125.807 42.9614C124.593 43.9397 124.288 45.095 125.016 46.1497C125.629 47.0385 126.54 47.3194 127.497 46.9564L128.315 48.1415C126.704 48.7987 125.118 48.301 124.096 46.8197ZM129.672 42.883C129.01 41.923 127.872 41.7457 126.609 42.4252L128.957 45.8264C130.077 44.9655 130.343 43.8547 129.672 42.883Z" fill="white"/>
<path d="M130.932 59.9471L135.624 56.3195L129.702 56.7022L129.181 55.3289L135.535 50.5625L136.041 51.8954L131.39 55.3072L137.2 54.9518L137.711 56.2982L133.103 59.8632L138.86 59.3276L139.37 60.6741L131.448 61.307L130.932 59.9471Z" fill="white"/>
<path d="M133.405 84.0694C133.665 81.9252 135.543 80.5575 137.787 80.83C140.032 81.1026 141.528 82.8798 141.267 85.0241C141.007 87.1683 139.129 88.536 136.885 88.2634C134.64 87.9909 133.145 86.2137 133.405 84.0694ZM134.677 84.2239C134.526 85.4676 135.407 86.5754 137.065 86.7768C138.723 86.9781 139.83 86.1115 139.981 84.8679C140.132 83.6242 139.263 82.5324 137.605 82.331C135.947 82.1297 134.828 82.9802 134.677 84.2239Z" fill="white"/>
<path d="M135.002 97.0627L130.977 95.5359L131.492 94.176L138.628 96.8824L138.148 98.1481L136.964 97.6987C137.574 98.4847 137.793 99.4917 137.42 100.475C136.863 101.942 135.553 102.554 133.843 101.906L129.225 100.154L129.741 98.7942L133.901 100.372C135.127 100.837 136.017 100.559 136.4 99.5489C136.753 98.6198 136.268 97.5427 135.002 97.0627Z" fill="white"/>
<path d="M118.612 115.924L119.701 114.959L124.762 120.672L123.749 121.57L122.908 120.621C123.103 121.622 122.842 122.565 122.055 123.262C121.214 124.007 120.196 124.14 119.269 123.614C119.52 124.7 119.263 125.736 118.39 126.509C117.215 127.55 115.783 127.453 114.58 126.095L111.305 122.398L112.393 121.433L115.363 124.786C116.203 125.734 117.12 125.922 117.918 125.216C118.661 124.557 118.711 123.397 117.861 122.438L114.958 119.161L116.047 118.196L119.017 121.549C119.857 122.497 120.774 122.685 121.572 121.979C122.326 121.31 122.365 120.16 121.515 119.2L118.612 115.924Z" fill="white"/>
<path d="M101.352 127.55L101.901 128.595C101.927 127.622 102.458 126.806 103.453 126.284C104.855 125.548 106.195 125.87 106.844 127.107C107.54 128.433 106.843 129.677 104.829 130.734C104.433 130.941 104.108 131.096 103.526 131.32L103.787 131.817C104.296 132.786 105.106 133.06 105.999 132.592C106.942 132.097 107.222 131.234 106.765 130.271L107.938 129.655C108.67 131.206 108.115 132.782 106.534 133.612C104.864 134.488 103.4 134.053 102.557 132.447L100.281 128.112L101.352 127.55ZM105.64 127.787C105.272 127.086 104.509 126.901 103.68 127.336C102.596 127.905 102.275 128.936 102.817 129.968L103.105 130.517C103.635 130.319 103.999 130.145 104.331 129.971C105.618 129.295 106.055 128.578 105.64 127.787Z" fill="white"/>
<path d="M87.8054 136.625C87.2541 134.388 88.1441 132.463 90.1295 131.974C91.1362 131.725 92.1131 132.019 92.8649 132.782L91.8898 128.826L93.3019 128.478L95.7933 138.586L94.479 138.91L94.1448 137.554C93.8478 138.636 93.0734 139.405 92.0247 139.663C90.0533 140.149 88.3568 138.862 87.8054 136.625ZM89.2735 136.263C89.6836 137.927 90.7953 138.646 92.0117 138.347C93.1861 138.057 93.878 136.893 93.468 135.229C93.0648 133.593 91.9217 132.867 90.7332 133.159C89.5168 133.459 88.8634 134.599 89.2735 136.263Z" fill="white"/>
</g>
<defs>
<filter id="filter0_b_402_4" x="-4" y="-4" width="164" height="164" filterUnits="userSpaceOnUse" color-interpolation-filters="sRGB">
<feFlood flood-opacity="0" result="BackgroundImageFix"/>
<feGaussianBlur in="BackgroundImageFix" stdDeviation="2"/>
<feComposite in2="SourceAlpha" operator="in" result="effect1_backgroundBlur_402_4"/>
<feBlend mode="normal" in="SourceGraphic" in2="effect1_backgroundBlur_402_4" result="shape"/>
</filter>
</defs>
</svg>
