<svg width="52" height="51" viewBox="0 0 52 51" fill="none" xmlns="http://www.w3.org/2000/svg">
<path d="M34.4355 1.33943C37.1221 1.76241 39.6673 2.46738 42.071 3.87731C44.9697 5.56922 46.9493 8.1071 48.1512 11.2089C49.2116 13.7468 49.7065 16.4962 49.9893 19.1751C50.4135 23.0524 50.4842 26.9297 50.2014 30.807C49.9893 33.9793 49.5651 37.1517 48.2925 40.1125C46.7372 43.8488 44.0506 46.3867 40.3036 47.9376C37.8998 48.9246 35.3546 49.4181 32.8095 49.7C28.921 50.123 24.9619 50.1935 21.0734 49.9115C17.7506 49.7001 14.4277 49.2771 11.317 48.0081C7.00435 46.3162 4.17639 43.2849 2.62101 38.9846C1.77262 36.4467 1.34843 33.8383 1.06563 31.1595C0.782838 27.7756 0.782839 24.3213 0.994935 20.9375C1.20703 17.5536 1.63123 14.1698 2.97451 10.9975C4.67128 6.76766 7.71134 4.0183 12.024 2.46738C14.5691 1.55092 17.2557 1.12794 19.9423 0.916452C21.7804 0.845955 28.5675 0.281983 34.4355 1.33943Z" stroke="white" stroke-width="1.59184" stroke-miterlimit="10"/>
<path d="M31.6797 49.2066V34.3318" stroke="white" stroke-width="1.59184" stroke-miterlimit="10"/>
<path d="M0.855469 22.277H20.7219" stroke="white" stroke-width="1.59184" stroke-miterlimit="10"/>
<path d="M31.6797 1.19849V12.5484" stroke="white" stroke-width="1.59184" stroke-miterlimit="10"/>
<path d="M20.7188 17.4127V27.0002" stroke="white" stroke-width="1.59184" stroke-miterlimit="10"/>
<path d="M36.4862 12.8303H26.8711" stroke="white" stroke-width="1.59184" stroke-miterlimit="10"/>
<path d="M36.4862 34.0499H26.8711" stroke="white" stroke-width="1.59184" stroke-miterlimit="10"/>
</svg>
