<svg width="714" height="445" viewBox="0 0 714 445" fill="none" xmlns="http://www.w3.org/2000/svg">
<g opacity="0.16">
<path d="M357.827 598.781C357.827 569.262 355.964 540.247 342.715 512.894C339.087 504.946 333.655 497.953 326.852 492.471C320.049 486.988 312.062 483.167 303.524 481.31C220.307 458.49 145.3 421.516 90.0905 352.101C68.8944 325.415 56.9277 292.573 55.9875 258.506C55.4837 247.273 56.7934 240.271 71.6537 248.079C118.3 272.611 168.17 289.99 217.133 309.233C239.147 317.847 258.339 331.498 278.69 343.084C312.978 361.536 338.687 392.669 350.322 429.828C372.123 486.089 382.02 546.259 379.387 606.539C370.925 607.748 361.152 612.03 357.827 598.781Z" fill="#141518"/>
<path d="M357.829 598.769C363.269 606.476 373.546 600.482 379.54 606.527C389.615 647.632 388.305 650.805 345.941 647.481C263.843 642.062 186.041 608.838 125.354 553.282C85.9614 517.567 53.2688 476.764 33.1193 426.894C31.2051 419.287 35.7387 415.207 41.8843 413.242C48.987 410.925 53.2688 415.61 56.5431 421.302C59.0419 426.247 62.7935 430.45 67.4239 433.493C95.6836 476.31 129.031 514.091 172.604 542.3C225.346 576.504 283.427 594.336 345.387 602.094C347.578 602.404 349.809 602.269 351.946 601.698C354.084 601.127 356.085 600.131 357.829 598.769Z" fill="#141518"/>
<path d="M267.701 316.132C247.552 296.436 227.402 276.941 207.253 256.993C195.667 245.306 181.764 231.302 189.269 214.679C196.775 198.056 215.967 196.947 233.145 195.537C271.933 192.464 295.004 215.334 313.743 244.4C338.93 283.792 349.256 328.222 355.1 373.961C355.614 376.322 356.339 378.632 357.266 380.862C362.656 388.066 359.533 396.378 359.734 404.085C359.734 409.122 363.361 416.729 355.856 418.24C349.76 419.449 346.637 412.699 344.018 407.812C324.573 372.248 294.954 345.198 267.701 316.132Z" fill="#141518"/>
<path d="M532.009 267.226C558.153 239.218 588.478 215.744 616.587 189.801C626.158 181.036 633.16 181.641 638.298 195.493C656.03 243.198 647.668 287.426 622.33 329.841C617.292 329.135 615.68 332.712 614.068 335.986C606.26 352.358 593.163 354.876 578.807 347.371C557.196 336.137 534.024 328.833 512.212 318.204C500.173 312.31 498.712 306.568 508.182 295.687C516.192 286.469 525.864 278.258 532.009 267.226Z" fill="#141518"/>
<path d="M531.962 267.613C528.537 285.093 512.669 294.211 503.853 309.927C530.249 321.362 556.746 332.797 583.142 344.333C594.728 349.37 603.745 348.161 610.696 336.122C612.359 333.2 613.265 321.564 622.282 330.278C600.42 365.54 575.888 398.132 535.337 414.151C523.699 416.005 512.57 420.24 502.644 426.593C492.016 432.839 483.251 431.983 476.803 421.556C471.362 412.992 463.302 409.315 454.89 404.983C440.785 397.628 427.235 389.115 431.063 369.419C449.752 339.195 476.4 316.426 502.393 293.052C512.266 284.589 519.469 273.104 531.962 267.613Z" fill="#141518"/>
<path d="M405.378 222.378C421.548 191.146 462.502 172.457 496.051 180.618C505.874 183.036 506.68 190.693 506.68 197.946C506.68 224.796 490.157 244.24 475.7 264.49C467.993 264.49 465.625 270.434 462.955 276.227C454.845 292.347 443.36 295.521 428.198 285.194C418.878 278.847 412.279 272.651 398.578 278.948C387.949 283.985 388.503 271.694 390.971 264.641C395.858 250.638 403.162 237.389 405.378 222.378Z" fill="#141518"/>
<path d="M405.376 222.376C411.472 235.725 402.455 246.354 398.777 257.638C396.813 263.783 391.121 268.921 394.244 278.895C406.585 262.776 416.005 267.007 427.642 278.895C441.091 292.446 451.72 288.97 460.385 272.397C463.206 266.906 464.666 255.875 475.497 264.388C442.854 319.497 399.936 369.316 386.436 437.019C379.542 421.328 376.106 404.336 376.361 387.199C374.648 342.115 372.784 296.98 388.703 253.457C392.061 242.059 397.738 231.478 405.376 222.376Z" fill="#141518"/>
<path d="M426.641 502.007C426.036 493.293 419.991 497.423 415.609 497.323C409.111 497.323 405.181 493.041 409.362 487.802C416.667 478.634 415.709 468.559 408.808 462.615C400.597 455.613 396.819 470.473 388.961 471.028C388.961 431.434 407.549 399.396 431.325 369.625C432.805 377.862 436.674 385.482 442.451 391.537C448.228 397.592 455.658 401.814 463.817 403.678C466.184 404.333 469.61 404.987 470.466 406.7C486.183 439.141 507.793 417.178 527.338 412.846C530.562 412.09 533.181 411.234 535.599 414.105C508.397 431.283 478.828 444.732 455.001 467.753C444.388 478.16 434.884 489.639 426.641 502.007Z" fill="#141518"/>
<path d="M67.4153 433.496C64.8668 433.501 62.3663 432.803 60.1888 431.479C58.0114 430.155 56.2413 428.256 55.0737 425.99C46.8124 410.374 39.9616 414.505 33.1107 426.897C15.5369 393.614 4.89507 357.113 1.82862 319.601C-3.20876 265.348 1.37517 212.053 25.5042 161.931C31.4987 155.181 37.191 155.483 42.581 162.686C41.7247 188.427 32.1537 212.506 28.8794 238.247C20.8699 300.61 32.8589 358.792 59.1037 414.958C61.8238 420.953 64.5944 427.25 67.4153 433.496Z" fill="#141518"/>
<path d="M346.797 249.181C341.759 227.47 347.653 205.809 347.149 184.048C346.293 150.65 345.739 117.857 330.274 86.927C323.755 74.1064 314.887 62.6238 304.13 53.0757C295.877 46.3753 288.927 38.2131 283.628 28.9971C279.699 20.9876 274.41 11.6684 281.714 4.66648C289.018 -2.33548 300.755 -0.72352 309.873 4.66648C323.474 12.5752 331.282 25.5213 336.873 39.9282C358.181 93.9289 363.823 150.297 361.808 207.774C358.03 215.934 360.7 224.599 359.944 232.961C359.189 241.323 357.023 248.174 346.797 249.181Z" fill="#141518"/>
<path d="M607.216 550.517C602.783 544.976 599.156 546.336 595.327 551.374C591.499 556.411 588.376 554.547 582.079 553.741C557.446 550.568 559.209 543.314 573.415 528.554C576.84 524.978 571.349 524.373 568.73 523.517C602.279 496.567 626.71 462.363 647.213 425.036C656.834 431.333 657.287 432.34 652.25 442.667C648.119 450.525 643.737 458.031 644.291 467.854C661.317 464.378 669.73 452.742 675.22 437.327C676.782 432.894 679.804 427.253 686.151 430.074C689.778 431.585 687.562 435.564 687.008 438.486C671.711 482.712 644.012 521.603 607.216 550.517Z" fill="#141518"/>
<path d="M660.015 120.679C694.874 176.09 714.318 235.783 712.706 301.722C708.727 313.812 711.397 326.305 711.044 338.546C711.044 346.505 710.288 353.96 701.675 356.831C693.061 359.703 682.835 365.798 674.976 354.363C687.771 281.321 689.333 209.186 658.303 139.569C657.097 136.054 656.253 132.425 655.784 128.739C654.222 124.709 653.316 120.477 660.015 120.679Z" fill="#141518"/>
<path d="M674.969 354.368C700.156 359.103 708.518 352.605 709.173 328.778C709.425 319.761 705.697 309.938 712.699 301.677C716.644 348.819 707.749 396.15 686.958 438.643C685.9 434.11 681.92 427.662 680.409 436.175C675.372 461.009 657.892 470.278 636.836 476.827C639.153 462.42 640.261 447.811 650.739 435.973C654.064 432.246 651.948 427.611 647.213 425.093C658.293 402.276 667.573 378.63 674.969 354.368Z" fill="#141518"/>
<path d="M372.943 218.407C372.138 206.871 380.852 199.164 384.731 189.543C394.151 165.968 396.518 141.083 399.843 116.299C400.259 108.185 402.534 100.274 406.492 93.1777C414.905 80.282 427.095 82.0451 438.228 87.1832C449.361 92.3213 447.043 103.303 442.913 111.766C426.642 144.861 409.716 177.554 392.942 210.347C388.962 218.155 384.63 225.459 380.399 233.368C377.729 237.247 375.714 243.695 369.619 240.471C365.136 238.053 367.151 232.713 369.216 228.834C371.281 224.956 371.231 221.631 372.943 218.407Z" fill="#141518"/>
<path d="M305.232 173.274L320.344 192.668C322.006 194.582 323.014 196.748 320.797 198.713C316.918 202.239 314.702 197.151 311.528 196.698C290.12 178.966 275.007 155.391 255.462 135.896C248.511 128.945 244.934 119.172 256.571 112.07C268.207 104.967 274.604 111.717 279.44 120.734C284.276 129.751 286.896 137.962 290.573 146.576C295.661 155.24 298.985 165.012 305.232 173.274Z" fill="#141518"/>
<path d="M42.5807 162.694C36.9388 161.939 31.3473 158.564 25.5039 161.939C35.5787 130.153 55.2748 104.462 75.8777 79.3257C79.0009 76.6055 81.7212 72.7771 85.7007 71.9207C91.6448 70.611 93.3072 73.3816 89.8314 78.6708C74.7192 104.21 58.7002 129.045 48.9277 157.355C48.667 158.849 47.8877 160.204 46.7268 161.181C45.5659 162.157 44.0978 162.693 42.5807 162.694Z" fill="#141518"/>
<path d="M660.017 120.68L655.786 128.74L637.047 90.9593L641.278 88.3398C648.734 98.2635 657.801 107.079 660.017 120.68Z" fill="#141518"/>
<path d="M311.375 196.7C314.7 196.095 320.291 200.629 320.19 192.67C323.239 194.53 325.784 197.111 327.602 200.185C329.421 203.259 330.456 206.733 330.618 210.301C326.446 210.108 322.417 208.725 319.007 206.315C315.597 203.904 312.949 200.568 311.375 196.7Z" fill="#141518"/>
<path d="M305.236 173.272C295.765 166.875 292.592 157.002 290.426 146.574C298.029 153.709 303.208 163.045 305.236 173.272Z" fill="#141518"/>
</g>
</svg>
