<svg width="105" height="95" viewBox="0 0 105 95" fill="none" xmlns="http://www.w3.org/2000/svg">
<g opacity="0.6">
<path d="M52.4197 87.7217C52.4197 83.3972 52.1466 79.1464 50.2058 75.1392C49.6741 73.9748 48.8784 72.9503 47.8818 72.1471C46.8852 71.3439 45.715 70.7841 44.4643 70.512C32.2729 67.169 21.2843 61.7522 13.1961 51.5829C10.0908 47.6734 8.33772 42.862 8.19997 37.8712C8.12617 36.2255 8.31804 35.1997 10.4951 36.3436C17.3288 39.9375 24.6348 42.4836 31.8079 45.3026C35.0329 46.5646 37.8446 48.5645 40.826 50.2619C45.8492 52.9652 49.6155 57.5262 51.3201 62.9699C54.514 71.2122 55.9639 80.0272 55.5783 88.8582C54.3384 89.0353 52.9068 89.6626 52.4197 87.7217Z" fill="white"/>
<path d="M52.4203 87.7199C53.2173 88.849 54.7228 87.9708 55.601 88.8564C57.0769 94.8783 56.8851 95.3433 50.6787 94.8562C38.6513 94.0624 27.2532 89.195 18.3625 81.056C12.5915 75.8237 7.80205 69.8461 4.85013 62.5401C4.5697 61.4257 5.23387 60.828 6.13421 60.5401C7.17476 60.2007 7.80205 60.887 8.28173 61.7209C8.6478 62.4453 9.19743 63.0611 9.87577 63.5068C14.0158 69.7797 18.9013 75.3145 25.2848 79.4472C33.0114 84.4581 41.5203 87.0705 50.5975 88.207C50.9185 88.2524 51.2453 88.2327 51.5585 88.149C51.8717 88.0653 52.1647 87.9194 52.4203 87.7199Z" fill="white"/>
<path d="M39.2196 46.3136C36.2677 43.4281 33.3157 40.5721 30.3638 37.6497C28.6665 35.9376 26.6296 33.886 27.7292 31.4507C28.8288 29.0153 31.6405 28.853 34.157 28.6463C39.8395 28.1962 43.2194 31.5466 45.9647 35.8047C49.6546 41.5757 51.1675 48.0847 52.0235 54.7856C52.0988 55.1314 52.205 55.4698 52.3409 55.7966C53.1305 56.8519 52.6729 58.0696 52.7025 59.1987C52.7025 59.9367 53.2338 61.051 52.1342 61.2724C51.2413 61.4495 50.7837 60.4606 50.4 59.7448C47.5514 54.5346 43.2121 50.5717 39.2196 46.3136Z" fill="white"/>
<path d="M77.9315 39.207C81.7617 35.1039 86.2043 31.6649 90.3222 27.8643C91.7244 26.5802 92.7502 26.6688 93.5029 28.6982C96.1006 35.6869 94.8755 42.1663 91.1635 48.3801C90.4255 48.2768 90.1894 48.8008 89.9532 49.2805C88.8094 51.6789 86.8906 52.0479 84.7874 50.9483C81.6214 49.3026 78.2267 48.2325 75.0313 46.6754C73.2675 45.812 73.0535 44.9707 74.4409 43.3766C75.6143 42.0261 77.0312 40.8232 77.9315 39.207Z" fill="white"/>
<path d="M77.9327 39.2053C77.4308 41.7661 75.1062 43.1019 73.8147 45.4043C77.6817 47.0796 81.5635 48.7548 85.4306 50.4447C87.1279 51.1827 88.4489 51.0056 89.4673 49.2418C89.7108 48.8138 89.8437 47.1091 91.1646 48.3858C87.9618 53.5516 84.3678 58.3264 78.4271 60.6731C76.7222 60.9447 75.0917 61.5653 73.6376 62.496C72.0805 63.4111 70.7964 63.2856 69.8518 61.758C69.0548 60.5034 67.874 59.9647 66.6416 59.33C64.5752 58.2526 62.5901 57.0054 63.1509 54.1199C65.8888 49.692 69.7928 46.3563 73.6007 42.9321C75.0472 41.6923 76.1025 40.0097 77.9327 39.2053Z" fill="white"/>
<path d="M88.9581 80.6501C81.1798 88.576 71.4015 92.2511 60.723 94.1846C58.45 94.5979 58.2581 93.668 58.1696 91.9707C58.0146 88.8638 57.6899 85.7717 57.557 82.6648C57.3651 78.1114 56.3836 73.6024 56.9445 69.0195C57.5865 67.8904 58.2876 66.5989 59.83 67.1598C61.0993 67.6247 61.3724 68.9826 61.1215 70.1634C60.8706 71.3442 61.1215 71.9936 62.317 72.3773C62.8262 72.5397 62.6786 73.1153 62.4646 73.5507C59.6972 77.6096 61.1215 82.0522 61.3724 86.362C61.4536 87.7421 62.7081 86.8639 63.3502 86.7015C70.6959 84.9763 77.5352 81.5541 83.3199 76.7093C84.5966 76.2148 84.7959 76.7093 84.39 77.8458C84.1317 78.5247 83.0616 79.2774 84.0874 79.9195C84.9139 80.4361 85.9323 80.9158 87.091 80.1114C87.9397 79.521 88.0651 79.6981 88.9581 80.6501Z" fill="white"/>
<path d="M59.3915 32.5786C61.7604 28.0032 67.7602 25.2653 72.6752 26.4608C74.1142 26.815 74.2323 27.9367 74.2323 28.9994C74.2323 32.9329 71.8117 35.7815 69.6937 38.7481C68.5646 38.7481 68.2178 39.619 67.8266 40.4676C66.6385 42.8292 64.9559 43.2941 62.7346 41.7812C61.3693 40.8514 60.4026 39.9437 58.3953 40.8662C56.8381 41.6041 56.9193 39.8035 57.2809 38.7703C57.9968 36.7187 59.0668 34.7778 59.3915 32.5786Z" fill="white"/>
<path d="M59.385 32.5784C60.278 34.534 58.957 36.0912 58.4183 37.7442C58.1305 38.6446 57.2966 39.3973 57.7541 40.8585C59.5621 38.497 60.9422 39.1169 62.6469 40.8585C64.6173 42.8437 66.1744 42.3345 67.4438 39.9065C67.857 39.1021 68.0711 37.4859 69.6577 38.7331C64.8756 46.8066 58.588 54.1052 56.6102 64.0237C55.6003 61.7249 55.0969 59.2357 55.1343 56.7251C54.8833 50.1201 54.6103 43.5078 56.9423 37.1317C57.4344 35.4619 58.266 33.9118 59.385 32.5784Z" fill="white"/>
<path d="M62.5045 73.5445C62.4159 72.2678 61.5303 72.8729 60.8883 72.8582C59.9363 72.8582 59.3607 72.2309 59.9732 71.4634C61.0433 70.1203 60.903 68.6443 59.892 67.7735C58.6891 66.7477 58.1356 68.9247 56.9844 69.0059C56.9844 63.2054 59.7075 58.5119 63.1908 54.1504C63.4075 55.3571 63.9743 56.4734 64.8207 57.3605C65.667 58.2475 66.7555 58.866 67.9508 59.1391C68.2976 59.2351 68.7994 59.331 68.9249 59.5819C71.2274 64.3345 74.3933 61.1169 77.2567 60.4823C77.729 60.3716 78.1127 60.2461 78.467 60.6667C74.4819 63.1833 70.1499 65.1537 66.6593 68.5262C65.1045 70.0508 63.7121 71.7325 62.5045 73.5445Z" fill="white"/>
<path d="M9.87638 63.5073C9.50302 63.5081 9.1367 63.4058 8.8177 63.2118C8.4987 63.0178 8.23939 62.7396 8.06832 62.4077C6.85804 60.12 5.85439 60.7251 4.85074 62.5406C2.27616 57.6646 0.71713 52.3172 0.267894 46.8216C-0.470086 38.8735 0.201463 31.0657 3.73639 23.7228C4.61458 22.7339 5.44851 22.7782 6.23815 23.8335C6.11269 27.6046 4.71053 31.1321 4.23084 34.9032C3.05745 44.0394 4.81385 52.5631 8.65872 60.7915C9.05723 61.6697 9.46311 62.5922 9.87638 63.5073Z" fill="white"/>
<path d="M50.8067 36.5052C50.0688 33.3245 50.9322 30.1512 50.8584 26.9631C50.7329 22.0703 50.6518 17.266 48.3862 12.7348C47.4311 10.8566 46.1319 9.17441 44.556 7.77563C43.3469 6.794 42.3288 5.59824 41.5525 4.24808C40.9768 3.0747 40.202 1.70943 41.2721 0.683642C42.3421 -0.342149 44.0616 -0.105996 45.3974 0.683642C47.3899 1.84227 48.5338 3.73888 49.3529 5.8495C52.4746 13.7606 53.3011 22.0186 53.0059 30.439C52.4524 31.6345 52.8436 32.9038 52.7329 34.1289C52.6222 35.3539 52.3048 36.3576 50.8067 36.5052Z" fill="white"/>
<path d="M88.9523 80.6511C88.3028 79.8394 87.7715 80.0386 87.2106 80.7766C86.6498 81.5146 86.1922 81.2415 85.2697 81.1234C81.661 80.6585 81.9193 79.5958 84.0004 77.4335C84.5023 76.9096 83.6978 76.821 83.3141 76.6956C88.229 72.7474 91.8083 67.7365 94.8118 62.2681C96.2214 63.1905 96.2878 63.3381 95.5498 64.851C94.9447 66.0022 94.3026 67.1018 94.3838 68.5409C96.8782 68.0317 98.1106 66.327 98.915 64.0687C99.1438 63.4193 99.5865 62.5928 100.516 63.006C101.048 63.2274 100.723 63.8104 100.642 64.2385C98.4009 70.7177 94.3429 76.4152 88.9523 80.6511Z" fill="white"/>
<path d="M96.6935 17.6795C101.8 25.7973 104.649 34.5423 104.413 44.2025C103.83 45.9736 104.221 47.8038 104.169 49.5971C104.169 50.7631 104.059 51.8553 102.797 52.276C101.535 52.6966 100.037 53.5896 98.8853 51.9144C100.76 41.2137 100.989 30.6458 96.4426 20.4469C96.2661 19.9319 96.1424 19.4003 96.0736 18.8603C95.8449 18.2699 95.712 17.65 96.6935 17.6795Z" fill="white"/>
<path d="M98.8795 51.9153C102.569 52.609 103.794 51.657 103.89 48.1664C103.927 46.8454 103.381 45.4063 104.407 44.196C104.985 51.1024 103.682 58.0364 100.636 64.2617C100.481 63.5975 99.8979 62.6529 99.6765 63.9001C98.9385 67.5383 96.3777 68.8962 93.293 69.8556C93.6324 67.745 93.7948 65.6048 95.3298 63.8706C95.8168 63.3245 95.5069 62.6455 94.8132 62.2765C96.4364 58.934 97.7959 55.4697 98.8795 51.9153Z" fill="white"/>
<path d="M54.6394 31.9965C54.5213 30.3066 55.798 29.1775 56.3663 27.7679C57.7463 24.3142 58.0932 20.6686 58.5802 17.0377C58.6412 15.8489 58.9745 14.69 59.5544 13.6504C60.7868 11.7611 62.5727 12.0194 64.2036 12.7722C65.8346 13.5249 65.4951 15.1337 64.89 16.3735C62.5063 21.222 60.0267 26.0115 57.5692 30.8158C56.9862 31.9596 56.3515 33.0297 55.7316 34.1883C55.3405 34.7566 55.0453 35.7012 54.1523 35.2289C53.4955 34.8747 53.7907 34.0924 54.0933 33.5242C54.3959 32.9559 54.3885 32.4688 54.6394 31.9965Z" fill="white"/>
<path d="M44.7162 25.3845L46.9301 28.2257C47.1736 28.5062 47.3212 28.8235 46.9965 29.1113C46.4283 29.6279 46.1036 28.8825 45.6386 28.8161C42.5022 26.2184 40.2883 22.7647 37.4249 19.9087C36.4065 18.8903 35.8825 17.4586 37.5873 16.4181C39.292 15.3775 40.2292 16.3664 40.9377 17.6874C41.6462 19.0084 42.0299 20.2113 42.5686 21.4732C43.314 22.7425 43.8011 24.1742 44.7162 25.3845Z" fill="white"/>
<path d="M6.24004 23.8348C5.41351 23.7241 4.59434 23.2297 3.73828 23.7241C5.21424 19.0675 8.09974 15.3038 11.1181 11.6213C11.5756 11.2228 11.9741 10.6619 12.5571 10.5364C13.428 10.3446 13.6715 10.7505 13.1623 11.5253C10.9484 15.2669 8.60156 18.9051 7.16988 23.0526C7.13168 23.2715 7.01752 23.47 6.84744 23.6131C6.67737 23.7561 6.4623 23.8347 6.24004 23.8348Z" fill="white"/>
<path d="M96.6933 17.6795L96.0734 18.8603L93.3281 13.3254L93.948 12.9417C95.0402 14.3955 96.3686 15.6869 96.6933 17.6795Z" fill="white"/>
<path d="M45.6172 28.8167C46.1043 28.7281 46.9234 29.3923 46.9087 28.2263C47.3553 28.4989 47.7282 28.8769 47.9945 29.3273C48.2609 29.7777 48.4126 30.2866 48.4363 30.8092C47.8252 30.781 47.2349 30.5784 46.7353 30.2253C46.2357 29.8722 45.8477 29.3834 45.6172 28.8167Z" fill="white"/>
<path d="M44.7204 25.3847C43.333 24.4474 42.8681 23.001 42.5508 21.4734C43.6647 22.5186 44.4234 23.8863 44.7204 25.3847Z" fill="white"/>
</g>
</svg>
